<svg height="104.916" viewBox="0 0 114.508 104.916" width="114.508" xmlns="http://www.w3.org/2000/svg"><path d="m112.417 65.282-37.085 38.635-50.587-14.728-8.494-5.956 86.221-25.487-19.618-50.317 8.189 5.734h.01l2.406 1.693c.639.421 1.133 1.031 1.409 1.745l18.382 44.573c.542 1.416.216 3.016-.832 4.108z" fill="#829a9e"/><path d="m101.317 58.94-35.391 36.47c-.654.671-1.628.936-2.541.685l-47.133-12.862c-.472-.127-.893-.381-1.216-.737-.259-.281-.453-.617-.575-.988l-2.366-7.607-11.025-35.373c-.255-.842-.074-1.761.5-2.429l29.013-34.419c.574-.677 1.443-1.011 2.316-.893l43.224 5.746 5.212.697c.943.124 1.727.746 2.07 1.626l18.467 47.338c.368.941.144 2.017-.555 2.745z" fill="#d3e4e6"/><path d="m108.297 60.617s-13.503 5.046-31.387 33.873c-2.088 3.368-4.098 5.348-5.969 6.315l-6.084-4.306 37.615-38.754-19.618-50.316 8.189 5.734c-3.677 1.88 11.91 39.194 13.674 41.789s3.581 5.665 3.581 5.665z" fill="#b4b9b4"/><path d="m75.333 104.916c-.201 0-.403-.061-.578-.184l-10.472-7.414c-.238-.168-.391-.433-.418-.724s.075-.579.278-.788l37.161-38.292-19.435-49.008c-.159-.402-.042-.861.291-1.138s.806-.308 1.172-.077l10.665 6.717.018.011c.819.541 1.437 1.311 1.785 2.229l18.379 44.545c.681 1.794.268 3.818-1.041 5.182l-37.082 38.632c-.195.203-.457.308-.722.308zm-8.941-8.556 8.816 6.242 36.486-38.011c.777-.81 1.022-2.011.624-3.061l-18.378-44.544c-.208-.546-.556-.983-1.019-1.29l-8.064-5.079 18.544 46.76c.145.366.062.783-.212 1.065l-36.798 37.918z" fill="#670a39"/><path d="m78.737 7.821c-15.492 1.316-35.069-4.431-46.281 2.349-11.769 7.117-23.838 23.846-23.292 31.939.609 9.018 1.158 20.411 2.929 31.793l-11.023-35.374c-.255-.842-.074-1.761.5-2.429l29.013-34.419c.574-.677 1.443-1.011 2.316-.893z" fill="#fff8ea"/><path d="m101.317 58.94-35.391 36.47c-.654.671-1.628.936-2.541.685l-47.133-12.862c-.472-.127-.893-.381-1.216-.737 11.635 2.191 38.377 9.132 45.557 7.304 9.345-2.379 33.004-29.725 34.058-34.094 1.804-7.477-14.978-46.178-18.695-48.814 0 0 .06-.126.168-.358l5.212.697c.943.124 1.727.746 2.07 1.626l18.467 47.338c.368.941.144 2.017-.555 2.745z" fill="#b2c2c4"/><g fill="#670a39"><path d="m64.111 97.428c-.315 0-.632-.042-.944-.126l-47.139-12.863c-1.187-.324-2.115-1.219-2.481-2.395l-13.385-42.977c-.366-1.176-.111-2.439.683-3.38l29.018-34.412c.793-.941 1.996-1.406 3.216-1.244l48.436 6.442c1.296.172 2.395 1.036 2.87 2.253l18.458 47.343c.509 1.305.207 2.797-.768 3.802l-35.389 36.466c-.685.706-1.618 1.089-2.575 1.089zm-31.508-95.428c-.465 0-.906.203-1.212.564l-29.017 34.413c-.351.417-.464.976-.302 1.496l13.385 42.977c.162.52.573.917 1.098 1.06l47.139 12.863c.558.152 1.155-.011 1.558-.426l35.389-36.466c.432-.445.565-1.105.34-1.683l-18.46-47.344c-.21-.539-.697-.921-1.27-.998l-48.436-6.442c-.071-.009-.142-.014-.212-.014z"/><ellipse cx="51.618" cy="46.74" rx="22.406" ry="19.7" transform="matrix(.2508531 -.96802517 .96802517 .2508531 -6.577 84.982)"/><path d="m50.372 69.988c-1.538 0-3.086-.191-4.626-.59-11.049-2.864-17.404-15.357-14.167-27.851 1.562-6.029 5.102-11.167 9.967-14.466 4.905-3.327 10.566-4.394 15.943-2.999 11.049 2.863 17.404 15.357 14.167 27.851-2.787 10.752-11.786 18.055-21.284 18.055zm2.455-44.501c-3.497 0-6.997 1.104-10.159 3.249-4.462 3.027-7.713 7.755-9.153 13.313-2.961 11.426 2.751 22.826 12.732 25.413 9.98 2.586 20.511-4.605 23.472-16.031s-2.751-22.826-12.732-25.413c-1.372-.356-2.766-.531-4.16-.531z"/></g><path d="m67.155 49.396c-3.101 11.985-14.157 19.479-24.687 16.752-.669-.173-1.324-.384-1.957-.634-.01 0-.009-.011-.019-.012-9.287-3.613-14.376-14.772-11.475-25.99 3.11-11.975 14.156-19.469 24.696-16.742 2.547.66 4.821 1.85 6.772 3.457 6.138 5.032 9.033 14.085 6.67 23.168z" fill="#ceced6"/><path d="m46.885 67.712c-1.563 0-3.126-.197-4.667-.596-.709-.183-1.407-.409-2.073-.672-.025-.01-.049-.021-.073-.033-9.859-3.873-15.027-15.532-12.023-27.15 3.243-12.486 14.867-20.315 25.914-17.459 2.636.684 5.043 1.913 7.157 3.653 6.656 5.457 9.405 14.953 7.002 24.19-1.56 6.031-5.099 11.17-9.964 14.47-3.499 2.374-7.383 3.596-11.274 3.596zm-5.951-3.106c.573.224 1.174.417 1.785.574 4.813 1.246 9.897.28 14.318-2.719 4.463-3.027 7.712-7.756 9.151-13.316 2.208-8.487-.28-17.179-6.336-22.144-1.889-1.556-4.038-2.653-6.389-3.263-9.978-2.579-20.511 4.607-23.477 16.025-2.756 10.659 1.917 21.324 10.87 24.807.027.011.053.022.078.035z" fill="#670a39"/><path d="m60.485 26.228c-.297.599 1.334 1.21 1.334 1.21-7.934-3.692-21.1-4.195-27.541 9.647-5.081 10.918-.531 24.502 6.215 28.418-9.287-3.613-14.376-14.772-11.475-25.99 3.11-11.975 14.156-19.469 24.696-16.742 2.547.66 4.821 1.85 6.772 3.457z" fill="#fff8ea"/><path d="m46.844 67.707c-1.538 0-3.087-.191-4.627-.59-11.049-2.863-17.404-15.357-14.167-27.851s14.863-20.329 25.91-17.465c11.049 2.864 17.404 15.357 14.167 27.851-2.787 10.753-11.786 18.055-21.283 18.055zm2.484-44.497c-8.606 0-16.788 6.704-19.341 16.558-2.961 11.426 2.751 22.826 12.732 25.413 9.983 2.592 20.511-4.604 23.472-16.031 2.961-11.426-2.751-22.826-12.732-25.413-1.373-.356-2.758-.527-4.131-.527z" fill="#670a39"/><path d="m75.333 104.916c-.089 0-.18-.012-.271-.038l-48.321-13.563c-.575-.162-1.122-.407-1.626-.729l-10.603-6.498c-.471-.289-.619-.904-.33-1.375.288-.471.905-.619 1.375-.33l10.618 6.508c.354.226.721.39 1.106.498l48.321 13.563c.532.149.842.701.693 1.233-.124.441-.525.73-.962.73z" fill="#670a39"/><path d="m112.391 63.636c-.148 0-.299-.033-.441-.103l-9.92-4.891c-.495-.244-.699-.844-.455-1.339s.844-.698 1.339-.455l9.92 4.891c.495.244.699.844.455 1.339-.174.353-.529.558-.898.558z" fill="#670a39"/></svg>