<svg enable-background="new 0 0 477.618 822.015" height="823" viewBox="0 0 477.618 822.015" width="478" xmlns="http://www.w3.org/2000/svg"><path d="m276.591 52.353c-29.536-29.16-64.716-26.103-81.156-12.115-6.151 5.234-9.66 14.089-5.919 21.19 3.852 7.311 13.965 5.394 21.812 1.186 10.89-5.839 20.825-6.293 35.448 4.402 2.583 1.89 5.445 2.89 8.325 2.86z" fill="#9c819c"/><path d="m254.98 70.878c-3.022 0-6.06-1.055-8.793-3.054-14.905-10.902-24.526-9.615-34.385-4.329-3.061 1.642-10.871 5.245-17.263 3.292-2.633-.806-4.62-2.452-5.906-4.894-4.104-7.787-.01-17.172 6.156-22.417 15.652-13.318 51.598-18.352 82.506 12.164.202.2.31.476.296.76-.014.283-.147.548-.367.728l-21.489 17.524c-.176.143-.395.223-.622.225-.045 0-.089.001-.133.001zm-29.259-13.373c6.82 0 13.646 2.854 21.646 8.704 2.317 1.695 4.862 2.612 7.381 2.666l20.343-16.589c-29.823-28.765-64.068-23.999-79.007-11.286-5.559 4.729-9.296 13.104-5.682 19.962 1.029 1.952 2.617 3.269 4.722 3.912 3.937 1.207 9.818.029 15.733-3.141 5.225-2.802 10.044-4.228 14.864-4.228z" fill="#670a39"/><path d="m217.149 88.341c-2.876-.746-5.876-2.023-7.805-4.563-10.704-14.097-22.534-17.847-36.157-16.498-10.592 1.049-21.317 2.052-25.215-6.312-3.898-8.363 3.243-17.532 11.679-21.266 20.358-9.012 48.128-6.047 74.036 19.667 13.067 12.969-.253 33.197-16.538 28.972z" fill="#9c819c"/><path d="m221.591 89.92c-1.508 0-3.076-.192-4.693-.612-3.862-1.002-6.594-2.613-8.35-4.926-9.572-12.607-20.447-17.572-35.262-16.107-10.31 1.021-21.996 2.178-26.22-6.884-1.485-3.187-1.574-6.724-.258-10.231 1.906-5.079 6.672-9.82 12.438-12.372 23.87-10.569 51.961-3.138 75.145 19.872 7.31 7.256 6.425 15.968 3.159 21.702-2.923 5.133-8.737 9.558-15.959 9.558zm-43.371-23.898c13.021 0 23.016 5.423 31.921 17.151 1.474 1.94 3.849 3.314 7.26 4.199 8.34 2.157 15.256-2.459 18.412-8 2.9-5.092 3.679-12.833-2.83-19.293-22.577-22.408-49.839-29.683-72.927-19.464-5.293 2.343-9.651 6.652-11.375 11.246-1.139 3.036-1.073 5.958.198 8.684 3.625 7.778 14.09 6.741 24.21 5.739 1.762-.174 3.471-.262 5.131-.262z" fill="#670a39"/><path d="m226.274 75.472c-11.196-13.516-23.08-16.896-32.28-12.361-7.54 3.717-16.569-.021-19.093-8.204-2.111-6.844.912-15.217 8.544-18.74 18.376-8.483 47.87-6.225 66.331 18.788 4.961 6.722 3.722 16.764-2.768 22.429-6.479 5.655-15.397 4.531-20.734-1.912z" fill="#9c819c"/><path d="m237.594 82.036c-.389 0-.779-.016-1.17-.048-4.182-.338-8.061-2.426-10.921-5.879-10.248-12.371-21.572-16.781-31.068-12.102-3.898 1.921-8.392 2.05-12.33.354-3.91-1.685-6.885-5.023-8.161-9.161-2.425-7.86 1.479-16.434 9.08-19.943 19.814-9.145 49.381-5.521 67.555 19.103 5.255 7.119 3.947 17.786-2.915 23.776-2.905 2.538-6.442 3.9-10.07 3.9zm-35.531-21.808c8.216 0 17.084 5.072 24.981 14.605 2.513 3.034 5.902 4.867 9.542 5.161 3.487.281 6.956-.913 9.764-3.364 6.097-5.323 7.273-14.781 2.621-21.083-17.538-23.763-46.028-27.281-65.107-18.474-7.628 3.521-9.819 11.664-8.007 17.537 1.103 3.577 3.67 6.462 7.041 7.914 3.399 1.466 7.282 1.351 10.654-.312 2.703-1.332 5.566-1.984 8.511-1.984z" fill="#670a39"/><path d="m359.406 305.575c-6.9 4.42-16.02 2.38-20.42-4.46-3.777-5.887-3.511-14.61 4.46-20.42 32.78-21.03 47.1-43.48 42.53-66.75-3.69-18.78-19.7-38.58-45.09-55.75-25.09-16.97-57.84-30.09-89.84-36.01-8.046-1.493-13.34-9.215-11.85-17.22 1.5-8.03 9.205-13.329 17.22-11.84 36.4 6.72 72.27 21.13 101.02 40.58 73.151 49.46 83.13 119.81 1.97 171.87z" fill="#d5d6e4"/><path d="m338.986 301.115c-2.985-4.653-2.99-10.306-.69-14.74 1.41-2.026 3.154-4.225 5.15-5.68 32.78-21.03 47.1-43.48 42.53-66.75-3.69-18.78-19.7-38.58-45.09-55.75-25.09-16.97-57.84-30.09-89.84-36.01-3.99-.74-7.32-3.02-9.46-6.11 14.27.2 57.729 4.51 99.72 30.26 72.531 44.47 87.21 111.09-2.32 154.78z" fill="#9c819c"/><path d="m397.398 272.436c-9.156 11.568-21.746 22.724-37.992 33.136-6.901 4.423-16.024 2.378-20.424-4.456-4.4-6.878-2.4-16.013 4.467-20.424 14.557-9.335 25.48-18.957 32.703-28.802-5.534 8.467 10.801 31.958 21.246 20.546z" fill="#670a39"/><path d="m351.458 308.902c-5.2 0-10.3-2.559-13.317-7.244-4.687-7.326-2.547-17.107 4.767-21.807 14.397-9.232 25.31-18.839 32.437-28.553.321-.437.931-.537 1.376-.23.445.309.564.916.267 1.369-2.861 4.377 1.051 14.391 7.61 19.481 2.602 2.02 7.629 4.685 12.061-.157.364-.398.976-.435 1.386-.087.41.35.47.96.136 1.383-9.436 11.92-22.3 23.143-38.237 33.356-2.625 1.684-5.572 2.489-8.486 2.489zm22.598-52.714c-7.195 8.641-17.287 17.151-30.067 25.347-6.388 4.104-8.257 12.646-4.165 19.043 4.11 6.383 12.653 8.245 19.042 4.152 13.72-8.794 25.126-18.33 33.984-28.407-2.963.639-6.225-.3-9.477-2.824-5.129-3.982-9.277-11.462-9.317-17.311z" fill="#670a39"/><path d="m351.458 308.902c-5.2 0-10.3-2.559-13.317-7.244-4.687-7.326-2.547-17.107 4.767-21.807 32.4-20.776 46.56-42.887 42.085-65.717-3.639-18.523-19.504-38.096-44.672-55.113-24.982-16.895-57.589-29.961-89.463-35.848-8.55-1.587-14.223-9.836-12.647-18.389.769-4.145 3.105-7.743 6.578-10.132 3.475-2.392 7.67-3.282 11.812-2.516 36.514 6.745 72.525 21.213 101.397 40.736 33.925 22.937 54.158 49.947 58.513 78.112 3.341 21.605-2.812 42.474-18.285 62.025-.005.007-.01.014-.016.02-.021.025-.044.051-.069.076-9.432 11.902-22.283 23.107-38.197 33.307-2.625 1.685-5.572 2.489-8.486 2.49zm-97.758-215.032c-2.759 0-5.451.831-7.775 2.431-3.033 2.087-5.074 5.229-5.745 8.849-1.376 7.468 3.579 14.672 11.044 16.058 32.133 5.936 65.017 19.114 90.219 36.158 25.608 17.314 41.772 37.339 45.514 56.385 4.648 23.715-9.808 46.521-42.967 67.785-6.388 4.104-8.257 12.646-4.165 19.043 4.11 6.383 12.653 8.245 19.042 4.152 15.75-10.094 28.45-21.168 37.748-32.915.024-.03.051-.06.078-.088 15.09-19.085 21.093-39.418 17.843-60.436-4.268-27.602-24.205-54.145-57.657-76.762-28.649-19.372-64.391-33.729-100.641-40.426-.846-.157-1.695-.234-2.538-.234zm143.743 178.521h.01z" fill="#670a39"/><path d="m408.578 167.013c-.311 0-.617-.145-.812-.415-9.815-13.616-23.24-26.439-39.901-38.113-.452-.317-.562-.94-.245-1.394.317-.452.94-.561 1.393-.245 16.845 11.804 30.429 24.784 40.375 38.582.323.448.222 1.073-.226 1.396-.177.128-.381.189-.584.189z" fill="#670a39"/><path d="m319.905 736.327c8.774 24.897 19.154 43.655 28.145 40.486s9.168-25.92.394-50.817-27.384-41.811-35.14-38.062c-10.101 4.883-2.173 23.496 6.601 48.393z" fill="#4c4c4c"/><path d="m346.007 778.168c-10.185 0-20.215-22.131-27.045-41.51-.847-2.403-1.686-4.748-2.502-7.027-7.852-21.941-13.526-37.795-3.591-42.598 1.954-.945 4.416-.818 7.316.377 9.14 3.766 22.105 18.115 29.202 38.253 9.095 25.807 8.654 48.688-1.004 52.093-.791.279-1.585.412-2.376.412zm-30.262-89.751c-.755 0-1.428.139-2.006.418-8.316 4.02-2.897 19.164 4.604 40.123.817 2.282 1.657 4.63 2.505 7.037 9.09 25.791 18.149 40.161 25.19 40.163.574 0 1.133-.096 1.68-.288 8.314-2.93 8.214-25.617-.217-49.542-6.828-19.375-19.563-33.56-28.078-37.067-1.362-.562-2.602-.844-3.678-.844z" fill="#670a39"/><path d="m285.683 628.567c5.751 4.288-3.565 24.728-37.937 35.129-.011.011-.034.023-.046.011-80.662 25.022-107.638-36.238-75.157-72.543 7.571-8.481 16.609-13.153 20.52-24.203 6.378-18.088 13.563-22.26 21.93-18.702 14.995 6.389 16.655 29.342 4.059 40.222 6.709-.131 12.872-1.611 19.224-3.684.011-.011.034-.011.046-.022 6.241-2.069 12.437-4.661 19.235-6.867 30.796-10.037 39.734 5.932 17.11 25.181 15.874-7.113 40.371 1.913 11.016 25.478z" fill="#9c819c"/><path d="m286.956 634.763c-10.726 12.269-33.919 26.049-39.369 21.271-3.206-2.808 1.592-7.969 4.934-10.402 15.586-5.309 27.842-12.46 35.925-19.383-.864.762-1.774 1.535-2.762 2.319 1.511 1.136 2 3.353 1.272 6.195z" fill="#b9acc0"/><path d="m279.087 575.271c5.139 1.098 8.258 7.147 5.502 11.621-6.216 10.089-20.991 20.588-36.372 25.354-29.185 9.064-36.252-11.59-21.263-21.085 5.192-3.289 39.056-18.683 52.133-15.89z" fill="#b9acc0"/><path d="m292.118 601.562c13.592 4.706-5.99 27.298-31.894 36.486-23.858 8.445-34.364-5.68-20.483-16.034 6.074-4.531 29.468-15.979 37.019-19.298 5.139-2.259 10.937-2.685 15.358-1.154z" fill="#b9acc0"/><path d="m213.222 670.327c-22.79.001-40.311-8.174-49.182-23.349-.279-.477-.118-1.09.359-1.368s1.089-.118 1.368.358c4.873 8.336 20.687 27.093 62.169 21.29 28.403-3.977 54.445-18.665 58.052-32.743.609-2.381.28-4.257-.906-5.147-.247-.187-.395-.477-.399-.785-.005-.31.134-.604.376-.796 10.897-8.696 15.426-16.507 12.426-21.43-3.105-5.095-13.786-6.218-22.41-2.354-.454.201-.988.041-1.254-.379s-.182-.972.196-1.295c9.917-8.47 14.307-16.89 11.456-21.975-2.403-4.286-10.917-6.93-27.607-1.494-3.576 1.161-7.012 2.439-10.335 3.676-9.331 3.471-18.145 6.75-28.461 6.945-.42-.03-.802-.249-.953-.643s-.039-.839.28-1.114c6.142-5.305 9.12-13.965 7.772-22.6-1.171-7.5-5.387-13.312-11.569-15.945-3.115-1.323-5.851-1.43-8.362-.325-4.565 2.011-8.567 8.042-12.233 18.439-2.752 7.776-7.894 12.427-13.337 17.35-2.462 2.228-5.008 4.53-7.38 7.188-6.968 7.787-11.344 17.135-12.658 27.034-.073.547-.576.926-1.123.859-.547-.072-.932-.575-.86-1.123 1.367-10.299 5.914-20.017 13.149-28.104 2.442-2.735 5.029-5.075 7.53-7.337 5.25-4.75 10.21-9.235 12.793-16.534 3.859-10.945 8.214-17.357 13.312-19.603 3.045-1.341 6.3-1.238 9.952.315 6.831 2.91 11.482 9.28 12.762 17.477 1.305 8.358-1.168 16.755-6.505 22.547 8.898-.64 16.834-3.592 25.193-6.701 3.343-1.244 6.799-2.529 10.414-3.704 15.151-4.937 26.355-4.031 29.97 2.419 2.994 5.341-.11 13.085-8.321 21.192 8.449-2.14 17.218-.304 20.295 4.746 2.067 3.392 3.191 10.891-12.02 23.334 1.145 1.496 1.423 3.74.752 6.361-3.855 15.045-30.083 30.079-59.712 34.228-5.204.73-10.214 1.09-14.989 1.09z" fill="#670a39"/><path d="m217.864 589.557c-3.295 0-6.696-.341-10.232-1.131-.539-.12-.878-.654-.758-1.193s.655-.878 1.194-.758c14.361 3.208 26.641-1.368 38.517-5.793 3.68-1.371 7.155-2.666 10.682-3.733.528-.163 1.087.139 1.247.667.16.529-.139 1.087-.667 1.247-3.466 1.049-6.913 2.333-10.563 3.693-9.274 3.455-18.79 7.001-29.42 7.001z" fill="#670a39"/><path d="m243.482 649.394c-.44 0-.843-.292-.964-.737-.145-.532.169-1.082.702-1.228 10.389-2.833 29.995-9.451 44.575-21.94 4.113-3.365 11.597-11.15 10.603-16.626-.009-.05-.014-.1-.016-.149-.007-.223-.093-.681-.468-1.601-.033-.08-.053-.135-.061-.156-2.215-4.905-12.895-7.381-22.779-2.953-.505.221-1.096 0-1.321-.505-.226-.504 0-1.096.504-1.321 8.018-3.589 21.921-3.795 25.456 4.05l.053.132c.244.6.568 1.472.611 2.216 1.091 6.37-6.579 14.586-11.299 18.448-14.86 12.729-34.782 19.458-45.333 22.336-.087.023-.175.034-.263.034z" fill="#670a39"/><path d="m233.217 622.462c-.43 0-.828-.279-.957-.713-.159-.528.141-1.086.67-1.245 15.963-4.789 30.719-11.386 41.551-18.575.387-.305.95-.284 1.313.069.396.384.407 1.016.023 1.412-.054.056-.133.119-.211.171l.001.001c-10.994 7.301-25.946 13.991-42.102 18.838-.096.029-.193.042-.288.042z" fill="#670a39"/><path d="m213.425 638.095c0 8.788-7.128 15.916-15.916 15.916-59.969 0-108.763-46.009-108.763-102.567 0-.227 0-.455.011-.682.137-21.191 7.128-40.87 18.986-57.173l.011-.012c19.611-26.978 52.534-44.701 89.755-44.701 8.788 0 15.916 7.128 15.916 15.916s-7.128 15.916-15.916 15.916c-19.542 0-37.414 6.741-50.988 17.814-2.331 1.898-4.525 3.911-6.582 6.048-12.039 12.483-19.361 28.91-19.361 46.872 0 21.839 10.812 41.393 27.774 54.376 4.593 3.513 9.641 6.548 15.052 9.015 10.277 4.707 21.862 7.344 34.106 7.344 8.787.002 15.915 7.13 15.915 15.918z" fill="#b9acc0"/><path d="m213.425 638.095c0 8.788-7.128 15.916-15.916 15.916-.944 0-1.876-.012-2.808-.034-58.684-1.409-105.955-46.861-105.955-102.533 0-7.04 1.091-15.57 1.285-15.768-1.285 55.126 43.337 88.913 67.916 76.42.023.012.057.023.08.034 9.925 4.536 26.079 9.675 38.175 10.039.432.012.875.012 1.308.012 8.787-.002 15.915 7.126 15.915 15.914z" fill="#9c819c"/><path d="m148.351 605.819c-.398.637-.978 1.193-1.774 1.649-12.517 7.242-56.763-29.286-45.292-73.805 8.129-31.559 37.141-41.87 38.585-30.491.057.477.091.944.068 1.398-12.039 12.483-19.361 28.91-19.361 46.872.001 21.84 10.812 41.394 27.774 54.377z" fill="#d5d6e4"/><path d="m197.509 655.01c-.952 0-1.892-.012-2.832-.034-28.669-.688-55.536-11.769-75.655-31.198-20.169-19.479-31.276-45.168-31.276-72.335 0-5.341.433-10.692 1.287-15.905h.001c.006-.037.015-.073.025-.109 2.533-15.334 8.547-29.607 17.876-42.428.013-.017.026-.034.04-.051 20.537-28.224 54.379-45.073 90.535-45.073 9.328 0 16.916 7.589 16.916 16.916s-7.588 16.916-16.916 16.916c-18.568 0-36.452 6.247-50.356 17.589-2.303 1.877-4.488 3.884-6.494 5.967-12.305 12.758-19.081 29.158-19.081 46.179 0 20.733 9.98 40.264 27.381 53.582 2.94 2.253 6.127 4.337 9.473 6.195 11.447 6.312 24.486 9.74 37.785 9.947.433.011.868.011 1.292.011 9.328 0 16.916 7.589 16.916 16.916s-7.59 16.915-16.917 16.915zm-106.519-119.055c-.826 5.077-1.245 10.288-1.245 15.488 0 26.619 10.891 51.798 30.666 70.896 19.756 19.08 46.148 29.961 74.313 30.637.924.022 1.849.034 2.784.034 8.225 0 14.916-6.691 14.916-14.916s-6.691-14.916-14.916-14.916c-.44 0-.892 0-1.332-.011-13.616-.212-26.979-3.727-38.634-10.164-3.513-1.94-6.782-4.079-9.8-6.391-17.899-13.7-28.165-33.809-28.165-55.17 0-17.541 6.975-34.435 19.641-47.566 2.061-2.14 4.306-4.202 6.671-6.129 14.26-11.633 32.592-18.039 51.62-18.039 8.225 0 14.916-6.691 14.916-14.916s-6.691-14.916-14.916-14.916c-35.536 0-68.787 16.557-88.946 44.289-.013.018-.026.034-.04.051-9.144 12.579-15.034 26.582-17.506 41.621-.006.04-.015.08-.027.118z" fill="#670a39"/><path d="m94.67 609.39c-.334 0-.66-.167-.849-.471-11.893-19.055-17.026-40.705-14.846-62.609.055-.551.547-.95 1.094-.896.55.055.951.545.896 1.094-2.136 21.462 2.896 42.677 14.552 61.354.292.469.15 1.085-.319 1.378-.164.101-.347.15-.528.15z" fill="#670a39"/><path d="m213.425 464.793c0 8.788-7.128 15.916-15.916 15.916-19.542 0-37.414 6.741-50.988 17.814 8.083-11.391-28.717-17.042-38.767-4.945 19.611-26.978 52.534-44.701 89.755-44.701 8.788 0 15.916 7.128 15.916 15.916z" fill="#670a39"/><path d="m146.521 499.523c-.246 0-.492-.091-.683-.27-.365-.342-.422-.901-.133-1.31 1.582-2.229 1.216-4.185-1.118-5.978-3.469-2.666-10.74-4.331-18.085-4.142-8.227.211-14.78 2.541-17.98 6.392-.345.416-.957.481-1.383.15s-.512-.94-.195-1.377c20.535-28.249 54.39-45.113 90.564-45.113 9.328 0 16.916 7.589 16.916 16.916s-7.588 16.916-16.916 16.916c-18.568 0-36.452 6.247-50.356 17.589-.184.153-.408.227-.631.227zm-18.854-13.713c7.449 0 14.473 1.753 18.139 4.57 1.974 1.517 2.936 3.319 2.852 5.212 13.825-10.267 31.033-15.884 48.851-15.884 8.225 0 14.916-6.691 14.916-14.916s-6.691-14.916-14.916-14.916c-33.1 0-64.219 14.366-84.621 38.747 3.652-1.683 8.303-2.663 13.563-2.798.406-.01.812-.015 1.216-.015z" fill="#670a39"/><path d="m349.472 775.495c-4.57 6.446-13.517 7.969-19.963 3.388-1.739-1.228-3.115-2.774-4.115-4.514-2.524-4.354-2.626-9.879.057-14.426l.068-.125c60.174-101.384 48.464-238.262-19.315-315.853-.023-.034-.046-.057-.068-.091-13.006-14.881-28.08-27.569-45.099-37.414-15.222-8.8-20.429-28.274-11.63-43.496 5.616-9.709 15.53-15.302 25.898-15.848 6.764-.364 13.722 1.433 19.804 5.628 0 0 32.173 25.556 46.077 42.018.637.75 1.262 1.5 1.887 2.262l.034.034c83.99 101.829 85.297 267.139 6.365 378.437z" fill="#c36b62"/><path d="m349.472 775.495c-4.57 6.446-13.517 7.969-19.963 3.388-1.739-1.228-3.115-2.774-4.115-4.514 3.956-6.036 7.969-12.482 11.88-19.236 69.382-119.642 39.494-291.99-61.22-353.357-14.461-8.799-19.406-28.274-11.05-43.496 2.603-4.729 6.173-8.492 10.3-11.164 6.764-.364 13.722 1.433 19.804 5.628 0 0 32.173 25.556 46.077 42.018.637.75 1.262 1.5 1.887 2.262l.034.034c83.991 101.829 85.298 267.139 6.366 378.437z" fill="#e48860"/><g fill="#ffae5d"><path d="m319.675 462.195c-.469 0-.862-.319-.97-.753-3.185-9.323-5.424-19.52-6.843-31.169-1.826-15.046-2.824-32.853 5.733-37.035 6.836-3.341 17.929 2.757 33.913 18.642 4.365 4.341 8.44 8.16 11.416 10.949.403.378.423 1.011.046 1.413-.378.403-1.01.423-1.413.046-2.985-2.798-7.073-6.629-11.458-10.99-10.375-10.312-24.284-21.851-31.625-18.263-8.376 4.095-5.651 26.545-4.626 34.997 1.406 11.539 3.622 21.625 6.775 30.833.036.104.054.214.054.324-.002.553-.45 1.006-1.002 1.006z"/><path d="m366.696 749.12c-.25 0-.501-.094-.696-.282-.302-.292-.38-.729-.23-1.097 4.198-13.281 6.079-27.394 7.738-39.847.516-3.875 1.004-7.536 1.543-11.072.825-5.392 1.989-10.419 3.115-15.28 3.262-14.09 6.636-28.659 2.424-54.495-3.257-19.938 1.058-33.035 5.626-46.901 5.86-17.788 11.92-36.183 3.46-71.716-8.9-37.378-21.256-56.641-47.376-88.292-10.045-12.172-14.439-12.578-16.164-11.741-4.989 2.428-4.564 20.018 1.109 45.905 4.725 21.513 13.376 37.19 21.009 51.021 10.604 19.215 18.98 34.392 12.655 56.241-.112.432-.503.753-.968.753-.552 0-1-.441-1-.994v-.012c0-.094.013-.188.04-.278 6.107-21.065-2.095-35.928-12.478-54.743-7.699-13.951-16.425-29.764-21.212-51.56-8.296-37.855-3.58-46.405-.031-48.133 4.061-1.973 10.138 2.037 18.581 12.267 26.328 31.904 38.786 51.336 47.779 89.103 8.59 36.084 2.441 54.752-3.506 72.805-4.489 13.627-8.729 26.498-5.552 45.953 4.276 26.226.857 40.99-2.449 55.269-1.117 4.825-2.273 9.814-3.086 15.131-.536 3.518-1.023 7.169-1.538 11.035-1.673 12.551-3.568 26.775-7.831 40.239h-.001c-.049.156-.134.303-.245.417-.194.202-.455.304-.716.304z"/><path d="m382.322 531.307c-.422 0-.815-.27-.951-.692-3.987-12.351-12.807-19.86-21.336-27.123-9.101-7.75-18.511-15.763-21.902-29.553-9.015-36.659-5.922-42.912-2.81-44.426 3.149-1.528 7.999 1.845 14.417 10.035 7.395 9.438 11.702 20.117 15.867 30.444 2.854 7.075 5.804 14.391 9.725 21.252 1.972 3.451 2.391 5.985 1.245 7.533-.485.655-1.704 1.659-4.424 1.046-8.003-1.811-25.275-17.143-30.871-45.932-1.343-6.906-.847-10.706 1.473-11.293 3.96-1 9.436 9.33 12.797 20.055 1.336 4.264 3.266 9.443 7.449 15.529.313.455.198 1.078-.258 1.391-.455.312-1.078.197-1.391-.258-4.333-6.304-6.329-11.658-7.709-16.064-4.355-13.894-9.207-19.002-10.398-18.714-.351.089-1.38 1.873 0 8.974 5.42 27.883 21.79 42.651 29.35 44.362 1.178.266 2.043.163 2.375-.286.459-.62.339-2.352-1.374-5.351-3.988-6.979-6.965-14.359-9.843-21.496-4.113-10.198-8.367-20.743-15.587-29.958-5.352-6.829-9.937-10.457-11.968-9.472-1.742.849-4.852 6.652 3.877 42.149 3.237 13.164 11.99 20.617 21.257 28.509 8.742 7.443 17.781 15.141 21.942 28.03.17.526-.119 1.09-.644 1.259-.102.035-.206.05-.308.05z"/><path d="m363.443 640.198c-.14 0-.282-.029-.418-.092-.502-.231-.721-.825-.49-1.327 3.304-7.171 6.86-15.378 7.22-22.031.487-8.977 3.011-15.857 5.683-23.142 3.191-8.698 6.49-17.692 6.662-31.284.3-23.871-6.648-33.489-10.801-35.408-1.078-.5-2.024-.498-2.597.002-.826.721-.95 2.44-.323 4.487 4.907 15.994.902 31.025-2.971 45.561-.512 1.922-1.02 3.828-1.501 5.717-.101.446-.5.782-.975.782-.552 0-1-.441-1-.994v-.012c0-.083.01-.166.031-.247.484-1.903.996-3.823 1.512-5.761 3.801-14.264 7.731-29.013 2.991-44.46-.887-2.897-.551-5.296.921-6.58 1.194-1.041 2.925-1.154 4.751-.311 1.265.584 12.347 6.597 11.961 37.249-.176 13.934-3.536 23.091-6.784 31.947-2.619 7.14-5.093 13.884-5.563 22.561-.379 7.006-4.019 15.422-7.4 22.762-.168.365-.53.581-.909.581z"/><path d="m330.273 771.332c-.232 0-.46-.025-.685-.076-3.186-.721-4.257-6.07-3.016-15.062.06-.495.482-.884.993-.884.552 0 1 .442 1 .995 0 .046-.003.103-.009.147-1.153 8.34-.044 12.509 1.475 12.853 2.614.588 9.343-7.472 17.182-32.106 1.353-4.258 2.381-8.139 3.469-12.248 2.948-11.134 6.289-23.754 17.421-47.009 6.185-12.912 7.912-22.6 8.272-28.452.451-7.343-.973-11.886-2.456-13.688-.233-.283-.835-.923-1.369-.789-.563.146-1.382 1.184-1.834 3.628-.353 1.917-.648 3.852-.96 5.9-1.436 9.42-3.064 20.096-11.2 33.288-.04.065-.087.125-.139.178-.182.19-.439.31-.724.31-.552 0-1-.447-1-1 0-.217.071-.42.191-.586 7.896-12.825 9.489-23.271 10.895-32.49.315-2.064.612-4.015.971-5.962.698-3.775 2.18-4.912 3.3-5.202.683-.177 2.034-.221 3.414 1.455 3.824 4.648 5.698 20.779-5.557 44.274-11.051 23.085-14.223 35.068-17.291 46.657-1.094 4.134-2.128 8.038-3.496 12.342-6.736 21.163-13.711 33.526-18.847 33.527z"/><path d="m382.783 715.559c-.043 0-.087-.003-.131-.009-.548-.071-.933-.573-.862-1.121 1.34-10.231 3.041-19.308 4.686-28.085 3.807-20.312 7.094-37.854 4.508-61.647-2.394-22.026 2.228-35.472 6.699-48.475 2.702-7.859 5.497-15.987 6.693-25.955.053-.502.478-.898.994-.898.552 0 1 .442 1 .995v.011c0 .04-.002.079-.007.119-1.221 10.184-4.051 18.417-6.789 26.379-4.602 13.384-8.948 26.025-6.602 47.607 2.618 24.089-.695 41.765-4.531 62.232-1.64 8.751-3.336 17.8-4.669 27.977-.065.504-.494.87-.989.87z"/><path d="m400.665 656.175c-.523 0-.953-.396-.996-.908-5.669-39.486 1.25-56.787 6.809-70.691.205-.514.786-.766 1.3-.558.513.205.762.787.557 1.3-5.473 13.688-12.285 30.723-6.68 69.71.007.048.01.095.01.143-0 .552-.448 1.004-1 1.004z"/></g><path d="m337.762 782.53c-3.15 0-6.215-.972-8.833-2.832-6.442-4.562-8.349-13.463-4.34-20.263l.051-.095c20.155-33.961 33.047-73.724 37.299-115.022 4.973-48.292-1.621-96.151-19.07-138.403-18.088-43.803-46.559-77.894-82.334-98.589-15.675-9.062-21.056-29.187-11.995-44.861 4.577-7.91 12.315-13.595 21.23-15.596 9.051-2.032 18.251-.237 25.906 5.053.038.026.074.055.109.086.019.016.181.145.449.36 10.114 8.119 34.998 28.661 47.611 44.021 27.868 33.779 47.748 76.172 57.523 122.626 18.801 89.352-.294 185.448-51.079 257.058-2.366 3.338-5.892 5.553-9.93 6.237-.868.148-1.735.22-2.597.22zm-60.705-434.476c-2.273 0-4.566.254-6.849.766-8.372 1.88-15.639 7.218-19.936 14.646-8.509 14.721-3.456 33.62 11.265 42.13 36.16 20.917 64.924 55.343 83.182 99.556 17.574 42.558 24.217 90.752 19.211 139.372-4.282 41.585-17.267 81.63-37.55 115.806l-.05.092c-3.502 5.941-1.844 13.679 3.758 17.646 2.9 2.062 6.428 2.871 9.937 2.272 3.51-.595 6.576-2.521 8.633-5.422 50.469-71.164 69.442-166.674 50.754-255.489-9.709-46.14-29.445-88.234-57.076-121.732-12.528-15.252-37.287-35.688-47.352-43.768-.223-.179-.381-.307-.469-.379-5.255-3.624-11.281-5.496-17.458-5.496z" fill="#670a39"/><path d="m351.483 665.474c-.055 0-.111-.005-.167-.014-.545-.092-.912-.607-.821-1.152 2.517-14.979 3.899-30.317 4.109-45.59.007-.548.454-.986 1-.986h.014c.552.008.994.462.986 1.014-.211 15.374-1.603 30.815-4.136 45.895-.082.487-.506.833-.985.833z" fill="#670a39"/><path d="m405.373 497.563c-.437 0-.838-.288-.962-.729-4.706-16.719-10.797-32.88-18.104-48.032-.24-.498-.031-1.096.466-1.335.497-.24 1.095-.032 1.335.466 7.357 15.258 13.49 31.528 18.228 48.36.15.531-.16 1.083-.692 1.233-.091.025-.182.037-.271.037z" fill="#670a39"/><path d="m343.072 397.024c-18.576-19.053-55.49 23.795-36.937 46.85-13.006-14.881-28.08-27.569-45.099-37.414-15.222-8.8-20.429-28.274-11.63-43.496 9.288-16.053 30.32-20.85 45.702-10.22.728.67 32.844 25.866 47.964 44.28z" fill="#670a39"/><path d="m306.135 444.874c-.279 0-.556-.116-.753-.342-13.211-15.116-28.299-27.634-44.847-37.206-15.675-9.062-21.056-29.187-11.995-44.861 4.577-7.91 12.314-13.595 21.23-15.596 9.051-2.032 18.251-.237 25.906 5.053.038.025.074.055.108.086.088.078.479.393 1.123.911 21.792 17.581 38.023 32.613 46.938 43.471.34.414.293 1.022-.106 1.38s-1.009.336-1.383-.047c-7.916-8.119-18.775-3.887-26.299 2.78-12.223 10.833-19.193 30.255-9.143 42.744.341.424.281 1.043-.136 1.394-.188.155-.416.233-.643.233zm-29.078-96.82c-2.273 0-4.565.254-6.849.766-8.372 1.88-15.639 7.218-19.936 14.646-8.509 14.721-3.456 33.62 11.265 42.129 14.478 8.375 27.848 18.976 39.838 31.575-4.197-12.786 2.626-28.654 13.356-38.163 7.829-6.939 16.023-9.268 22.772-6.817-9.36-10.112-23.912-23.24-41.852-37.714-.598-.482-.993-.802-1.153-.937-5.249-3.616-11.269-5.485-17.441-5.485z" fill="#670a39"/><path d="m406.169 536.39-134.716 114.185c-1.718 1.452-4.291 1.203-5.698-.546l-72.062-90.09c-.68-.847-.954-1.865-.854-2.861.102-1.151.715-2.256 1.755-2.948l147.599-98.232c1.707-1.082 3.971-.708 5.248.873l5.965 7.467 53.294 66.616c1.343 1.686 1.108 4.14-.531 5.536z" fill="#fffdae"/><path d="m406.169 536.39-133.393 113.054-75.087-93.866 149.243-99.334c.184.161.355.327.51.526l5.965 7.467 53.294 66.616c1.342 1.687 1.107 4.141-.532 5.537z" fill="#ffdf68"/><path d="m342.193 455.898-147.598 98.232c-1.04.692-1.653 1.797-1.755 2.948-.1.995.174 2.014.854 2.861l.804 1 7.247 9.062c-3.306-4.41.473-6.391 2.726-6.637 28.732-3.139 114.993-11.946 114.993-11.946 1.988-.208 3.687-1.513 4.413-3.377 17.182-44.567 30.565-79.285 31.402-81.456-.465-.582-7.753-9.709-7.837-9.813-1.176-1.511-3.47-2.003-5.249-.874z" fill="#dabc6c"/><path d="m355.278 466.584c.031.038.033.04 0 0z" fill="#dabc6c"/><path d="m355.278 466.584c.056-.144.057-.147 0 0z" fill="#dabc6c"/><path d="m268.989 652.514c-.12 0-.242-.021-.361-.067-.515-.199-.771-.778-.572-1.293l42.198-109.077c.138-.356.466-.603.846-.636l96.288-8.404c.469-.047.925.231 1.07.695.164.527-.125 1.086-.652 1.25l-.013.004c-.068.021-.138.035-.21.041l-95.689 8.353-41.973 108.495c-.153.396-.531.639-.932.639z" fill="#670a39"/><path d="m268.881 652.521c-.162 0-.325-.008-.488-.023-1.352-.13-2.565-.784-3.416-1.842l-72.062-90.09c-.82-1.022-1.2-2.297-1.07-3.589.133-1.495.934-2.842 2.197-3.681l6.165-4.094 141.433-94.137c1.882-1.197 4.263-1.021 5.943.42.189.166.425.385.648.671l7.829 9.803 51.421 64.269c1.692 2.125 1.4 5.165-.664 6.923-.001.001-.001.002-.002.002l-133.392 113.054-1.32 1.128c-.917.774-2.044 1.186-3.222 1.186zm75.45-196.247c-.552 0-1.107.154-1.601.468l-141.416 94.126-6.165 4.095c-.754.501-1.232 1.305-1.312 2.204-.078.778.149 1.536.638 2.146l8.052 10.062 64.01 80.028c.509.633 1.237 1.024 2.048 1.103.811.084 1.601-.168 2.224-.695l1.319-1.127 133.396-113.057c1.236-1.055 1.41-2.878.396-4.151l-59.258-74.081c-.103-.132-.216-.248-.388-.398-.559-.479-1.249-.723-1.943-.723zm61.838 80.116h.01z" fill="#670a39"/><path d="m369.813 559.232-42.382 35.38-12.201-15.268 42.56-35.136z" fill="#dabc6c"/><path d="m354.76 456.697c.75.217 1.153 1.029.873 1.757l-2.226 5.783-30.857 80.032c-.72 1.868-2.427 3.174-4.418 3.381l-114.872 11.931c-.851.088-1.712.012-2.534-.226l-7.886-2.277c.102-1.151.715-2.256 1.755-2.948l147.599-98.232.387-.263c1.636-1.086 3.655-1.402 5.542-.854z" fill="#fffdae"/><path d="m355.63 458.456-2.224 5.781-29.839 77.404c-.501.219-1.054.372-1.613.428l-117.556 12.201c-.845.086-1.705.009-2.534-.221l-4.984-1.445 145.314-96.706.387-.263c1.636-1.086 3.655-1.402 5.542-.854l6.635 1.923c.753.213 1.15 1.019.872 1.752z" fill="#ffed8d"/><path d="m345.553 531.191-16.304-2.98.136-1.115-8.521-4.342-1.53-1.474 25.535-2.058 1.126 11.085z" fill="#dabc6c"/><path d="m201.971 560.714c-.094 0-.187-.013-.277-.039l-9.131-2.637c-.46-.133-.761-.573-.719-1.05.134-1.507.935-2.854 2.198-3.692l2.283-1.524 145.693-96.964c1.898-1.26 4.221-1.617 6.385-.987l6.634 1.922c.619.177 1.144.609 1.435 1.187.293.582.327 1.268.095 1.882-.001.001-.001.003-.002.005l-2.224 5.781-30.859 80.038c-.867 2.228-2.875 3.764-5.242 4.011l-116.165 12.063c-.035.002-.07.004-.104.004zm-7.955-4.338 8.045 2.323 115.971-12.044c1.617-.168 2.99-1.22 3.584-2.744l1.018-2.632 32.06-83.179c.047-.125.013-.225-.011-.273-.028-.056-.086-.13-.199-.162l-6.64-1.924c-1.598-.464-3.315-.199-4.711.726l-.377.257-147.606 98.237c-.526.349-.917.844-1.134 1.415zm161.614-97.919h.01z" fill="#670a39"/><path d="m345.995 530.307-26.661-9.027 5.049-11.652 21.623 7.321 2.481.84z" fill="#fff8ea"/><path d="m345.995 531.307c-.108 0-.216-.018-.321-.053l-26.661-9.027c-.265-.09-.48-.286-.593-.542-.113-.255-.115-.547-.004-.803l5.05-11.652c.207-.478.746-.718 1.238-.55l24.104 8.161c.476.161.758.65.66 1.143l-2.493 12.519c-.056.282-.231.526-.48.671-.154.088-.327.133-.5.133zm-25.312-10.626 24.553 8.313 2.099-10.54-22.401-7.585z" fill="#670a39"/><path d="m285.683 628.567c5.751 4.288-3.565 24.728-37.937 35.129-.011.011-.034.023-.046.011-60.861 18.88-92.571-11.298-88.061-44.974 3.118-23.498 20.14-33.61 27.046-41.313 17.672 12.777 32.742 13.51 51.59 7.378.011-.011.034-.011.046-.022 6.241-2.069 12.437-4.661 19.235-6.867 30.798-10.039 39.733 5.934 17.11 25.181 15.871-7.116 40.371 1.911 11.017 25.477z" fill="#9c819c"/><path d="m286.956 634.763c-10.726 12.269-33.919 26.049-39.369 21.271-3.206-2.808 1.592-7.969 4.934-10.402 15.586-5.309 27.842-12.46 35.925-19.383-.864.762-1.774 1.535-2.762 2.319 1.511 1.136 2 3.353 1.272 6.195z" fill="#d5d6e4"/><path d="m279.087 575.271c5.139 1.098 8.258 7.147 5.502 11.621-6.216 10.089-20.991 20.588-36.372 25.354-29.185 9.064-36.252-11.59-21.263-21.085 5.192-3.289 39.056-18.683 52.133-15.89z" fill="#d5d6e4"/><path d="m292.118 601.562c13.592 4.706-5.99 27.298-31.894 36.486-23.858 8.445-34.364-5.68-20.483-16.034 6.074-4.531 29.468-15.979 37.019-19.298 5.139-2.259 10.937-2.685 15.358-1.154z" fill="#d5d6e4"/><path d="m159.641 619.734c-.044 0-.088-.003-.133-.009-.547-.072-.932-.575-.86-1.123 2.521-18.992 13.769-29.242 21.983-36.726 2.099-1.913 3.913-3.565 5.31-5.124.368-.411 1-.446 1.412-.076.411.368.446 1.001.077 1.412-1.464 1.633-3.312 3.316-5.452 5.266-7.986 7.276-18.923 17.242-21.347 35.512-.066.503-.496.868-.99.868z" fill="#670a39"/><path d="m212.456 670.315c-30.867 0-43.843-15.514-48.416-23.337-.279-.477-.118-1.09.359-1.368s1.089-.118 1.368.358c5.41 9.255 23.12 29.694 70.62 19.626 18.014-3.817 46.108-15.336 49.671-31.425.491-2.217.135-3.967-.976-4.803-.247-.186-.395-.476-.399-.784-.005-.31.134-.604.376-.796 10.897-8.696 15.426-16.507 12.426-21.43-3.105-5.095-13.786-6.218-22.41-2.354-.454.201-.988.041-1.254-.379s-.182-.972.196-1.295c9.917-8.47 14.307-16.89 11.456-21.975-2.403-4.287-10.918-6.932-27.607-1.494-2.95.957-6.079 2.112-9.391 3.336-8.403 3.103-17.093 6.312-24.585 6.963-.552.059-1.035-.359-1.083-.909-.048-.551.359-1.035.91-1.083 7.224-.628 15.786-3.79 24.066-6.847 3.332-1.23 6.479-2.393 9.466-3.362 15.15-4.938 26.354-4.032 29.97 2.419 2.994 5.341-.11 13.085-8.321 21.192 8.449-2.14 17.218-.304 20.295 4.746 2.067 3.392 3.19 10.891-12.018 23.332 1.086 1.41 1.385 3.475.835 5.953-1.776 8.02-14.765 25.227-51.209 32.95-9.145 1.94-17.222 2.766-24.345 2.766z" fill="#670a39"/><path d="m217.584 589.548c-4.402 0-8.973-.612-13.771-2.101-.527-.163-.823-.724-.659-1.251.164-.526.724-.822 1.251-.659 15.625 4.843 28.98-.056 41.894-4.797 3.592-1.318 7.306-2.682 10.968-3.788.529-.161 1.087.139 1.247.668.16.528-.139 1.087-.668 1.246-3.606 1.09-7.293 2.443-10.858 3.752-9.326 3.424-18.878 6.93-29.404 6.93z" fill="#670a39"/><path d="m243.482 649.394c-.44 0-.843-.292-.964-.737-.145-.532.169-1.082.702-1.228 10.389-2.833 29.995-9.451 44.575-21.94 4.113-3.365 11.597-11.15 10.603-16.626-.009-.05-.014-.1-.016-.149-.007-.223-.093-.681-.468-1.601-.033-.08-.053-.135-.061-.156-2.215-4.905-12.895-7.381-22.779-2.953-.505.221-1.096 0-1.321-.505-.226-.504 0-1.096.504-1.321 8.018-3.589 21.921-3.795 25.456 4.05l.053.132c.244.6.568 1.472.611 2.216 1.091 6.37-6.579 14.586-11.299 18.448-14.86 12.729-34.782 19.458-45.333 22.336-.087.023-.175.034-.263.034z" fill="#670a39"/><path d="m233.217 622.462c-.43 0-.828-.279-.957-.713-.159-.528.141-1.086.67-1.245 15.963-4.789 30.719-11.386 41.551-18.575.387-.305.95-.284 1.313.069.396.384.407 1.016.023 1.412-.054.056-.133.119-.211.171l.001.001c-10.994 7.301-25.946 13.991-42.102 18.838-.096.029-.193.042-.288.042z" fill="#670a39"/><path d="m342.689 314.161c-.01 0-.02 0-.031 0-.552-.017-.986-.478-.969-1.03l1.114-37.062c.017-.552.481-.943 1.03-.97.552.017.986.478.969 1.03l-1.114 37.062c-.016.542-.461.97-.999.97z" fill="#670a39"/><path d="m243.051 487.132-143.926-6.992-78.454-86.878c-.182-.205-.375-.41-.534-.626-2.035-2.342-3.729-4.968-5.104-7.776-.807-1.626-1.489-3.308-2.069-5.036-.887-2.637-1.523-5.366-1.887-8.14-1.364-10.141.75-20.781 6.696-28.739 20.032-26.818 69.075-22.214 108.479 15.461 2.479 2.365 4.923 4.866 7.31 7.503.284.295.546.602.819.898l3.524 3.9 6.821 7.56z" fill="#9c819c"/><path d="m133.561 365.909-120.598 13.915c-.887-2.637-1.523-5.366-1.887-8.14l115.175-13.278c2.478 2.364 4.922 4.865 7.31 7.503z" fill="#b9acc0"/><path d="m144.724 378.266-124.588 14.37c-2.035-2.342-3.729-4.968-5.104-7.776l122.871-14.154z" fill="#b9acc0"/><path d="m243.051 488.131c-.016 0-.032 0-.049-.001l-143.926-6.991c-.266-.013-.515-.132-.694-.329l-78.454-86.879c-12-13.279-13.69-35.905-3.767-50.437.254-.382.526-.771.81-1.15 1.114-1.489 2.319-2.89 3.58-4.162 18.719-19.036 54.515-17.376 87.047 4.041 2.677 1.747 5.421 3.701 8.155 5.807 6.84 5.291 13.357 11.384 19.371 18.109l108.669 120.322c.271.3.334.732.161 1.098-.165.351-.518.572-.903.572zm-143.462-8.969 141.107 6.854-107.059-118.54c-5.936-6.639-12.363-12.648-19.106-17.863-2.691-2.072-5.392-3.996-8.029-5.718-31.726-20.886-66.484-22.656-84.527-4.308-1.2 1.21-2.343 2.54-3.403 3.955-.262.351-.513.711-.753 1.07-9.439 13.824-7.824 35.343 3.594 47.978z" fill="#670a39"/><path d="m101.761 474.577-76.877-85.124c-10.314-11.42-11.486-31.162-2.56-43.111 7.109-9.516 18.973-14.756 33.407-14.756 24.732 0 52.55 14.584 74.412 39.012l99.521 110.193z" fill="#670a39"/><path d="m229.665 481.791c-.016 0-.032 0-.049-.001l-127.904-6.214c-.266-.013-.515-.131-.694-.329l-76.876-85.123c-10.612-11.751-11.812-32.074-2.619-44.38 7.302-9.774 19.451-15.158 34.208-15.158 25.012 0 53.108 14.708 75.157 39.345l99.519 110.19c.271.3.334.732.161 1.098-.165.35-.518.572-.903.572zm-127.441-8.193 125.085 6.077-97.909-108.408c-21.679-24.223-49.218-38.682-73.67-38.682-14.111 0-25.691 5.099-32.606 14.355-8.659 11.591-7.514 30.753 2.501 41.843z" fill="#670a39"/><path d="m167.325 411.769-65.563 62.811-76.874-85.128c-10.323-11.426-11.494-31.161-2.569-43.11 7.117-9.515 18.974-14.756 33.412-14.756 24.738 0 52.545 14.585 74.407 39.005z" fill="#8a2b73"/><path d="m101.763 475.581c-.012 0-.024 0-.036-.001-.27-.01-.525-.128-.706-.329l-76.874-85.128c-10.616-11.749-11.82-32.072-2.628-44.378 7.31-9.774 19.461-15.157 34.214-15.157 25.006 0 53.1 14.706 75.152 39.338l37.184 41.174c.362.401.34 1.018-.05 1.392l-65.563 62.812c-.188.177-.436.277-.693.277zm-46.031-142.994c-14.107 0-25.688 5.098-32.612 14.354-8.658 11.592-7.508 30.752 2.51 41.84l76.184 84.364 64.118-61.428-36.536-40.456c-21.681-24.217-49.218-38.674-73.664-38.674z" fill="#670a39"/><path d="m169.076 413.702-30.275 28.001c-1.739 1.614-4.434 1.614-6.173 0-94.619-88.238-92.14-83.591-92.244-87.151-.057-1.467.591-2.956 1.921-3.9l25.465-17.973c19.301 3.4 42.418 15.63 62.368 37.914z" fill="#fffdae"/><path d="m169.076 413.702-28.137 26.023c-.114-.09-.239-.193-.352-.295-100.146-92.654-92.177-84.64-92.245-87.152-.102-2.546-1.535-1.785 22.942-18.895 22.761 5.264 43.341 19.88 58.855 37.209z" fill="#ffdf68"/><path d="m52.571 367.648c-.955-.466-10.732-9.936-10.732-9.936-1.876-1.739-1.864-4.479-.432-6.207l7.037-.932 1.591.773 24.363-17.189c12.969 3.484 25.218 10.104 35.868 18.11-21.259 3.809-42.086 7.537-54.114 9.708-3.922.705-6.457 3.195-3.581 5.673z" fill="#dabc6c"/><path d="m135.715 443.906c-1.355 0-2.711-.49-3.767-1.47-20.902-19.339-37.094-34.292-49.633-45.871-21.489-19.844-32.275-29.805-37.616-34.917-5.389-5.157-5.72-5.729-5.341-6.958.027-.087.027-.091.026-.109-.135-3.197.101-3.36 12.42-11.929 3.719-2.587 8.812-6.129 15.388-10.789.218-.155.489-.22.752-.169 21.663 3.816 44.604 17.751 62.94 38.231l38.934 43.106c.044.049.083.101.116.155.219.288.251.527.095.818-.051.16-.142.309-.274.431l-.01.009-.421.39c-.05.046-.098.091-.146.135l-.302.279c-.073.066-.148.137-.227.21l-29.169 26.979c-1.055.98-2.41 1.469-3.765 1.469zm-94.433-88.669c.737 1.394 9.17 9.182 42.39 39.859 12.539 11.579 28.732 26.533 49.635 45.872 1.351 1.255 3.464 1.254 4.814.001 19.084-17.65 26.489-24.499 29.056-26.873l.494-.458-38.275-42.376c-17.93-20.026-40.279-33.683-61.39-37.525-6.418 4.546-11.403 8.014-15.061 10.557-11.652 8.104-11.651 8.145-11.563 10.216.011.332-.053.573-.1.727z" fill="#670a39"/><path d="m136.233 443.885c-.098 0-.198-.015-.296-.045-.528-.163-.823-.724-.659-1.251l15.12-48.806c.164-.527.724-.822 1.251-.659.528.163.823.724.659 1.251l-15.12 48.806c-.134.429-.529.704-.955.704z" fill="#670a39"/><path d="m104.718 348.321c-63.713 11.006-45.746 10.206-64.334 6.23-.057-1.467.591-2.956 1.921-3.9l25.465-17.973c13.167 2.343 25.936 8.24 36.948 15.643z" fill="#fffdae"/><path d="m98.636 344.502c-57.015 9.795-37.22 8.48-54.853 5.172-.011-.023-.011-.034-.011-.057l23.999-16.939c10.22 1.819 20.702 5.866 30.865 11.824z" fill="#ffed8d"/><path d="m52.786 358.256c-2.047 0-3.451-.388-5.843-1.049-1.639-.454-3.68-1.018-6.768-1.679-.447-.096-.772-.481-.79-.938-.129-3.237 1.172-4.119 8.391-9.015 4.079-2.767 10.244-6.947 19.401-13.703.22-.162.497-.229.767-.18 15.494 2.729 28.853 10.098 37.332 15.798.339.229.505.64.42 1.039s-.405.707-.808.776c-16.254 2.808-27.399 4.886-34.773 6.261-10.204 1.904-14.418 2.69-17.329 2.69zm-11.383-4.506c2.7.598 4.555 1.11 6.073 1.53 5.348 1.478 5.347 1.478 22.273-1.678 6.997-1.305 17.383-3.241 32.305-5.834-8.256-5.292-20.286-11.524-34.036-14.029-8.998 6.63-15.079 10.753-19.12 13.493-6.021 4.083-7.311 5.004-7.495 6.518z" fill="#670a39"/><path d="m213.993 463.428c-1.023.898-1.637 1.228-2.592 1.342-1.091.125-2.228-.205-3.092-1.012-.114-.114-72.497-67.086-72.372-66.961-3.479-3.479-6.434-5.298-6.673-6.98-.046-.091-.125-.546-.125-.796-.046-.09.034-1.114.114-1.193.034-.114.091-.307.114-.364 0-.955 3.32-3.331 9.265-7.458 18.637 20.602 60.627 67.105 60.742 67.233l.034.034z" fill="#fffdae"/><path d="m151.102 393.796 48.271 53.443c-21.236-19.599-56.433-52.17-60.333-55.933v-.012c-4.127-4.013-3.058-3.433-3.081-4.297-.068-1.376-.58-1.603 4.275-5.241l.034.046 4.263 4.718 3.263 3.615.023.022z" fill="#ffdf68"/><path d="m142.871 395.24c.114-.023.239-.034.273-.034-.023.011-.159.046-.477.113-3.24.591-5.378 2.592-3.331 4.627l.216.216c-.966-.58-8.606-7.958-9.174-8.504-.682-.637-1.012-1.489-1.114-1.842-.114-.421-.25-1.671-.125-1.989.352-.875 1.046-1.569 1.898-1.944 2.74-1.228 6.094-2.694 9.231-4.081l4.263 4.718 3.263 3.615.023.022 3.285 3.638c-5.616.99-7.639 1.342-8.231 1.445z" fill="#dabc6c"/><path d="m210.935 465.781c-1.198 0-2.386-.434-3.307-1.292-.712-.669-71.472-66.138-72.356-66.945-.014-.013-.028-.025-.042-.039-1.186-1.186-2.307-2.174-3.297-3.045-2.078-1.829-3.451-3.038-3.659-4.502l.019-.003c-.082-.633.008-1.865.084-2.491h-.011c0-1.397 1.962-2.912 9.695-8.279.413-.288.974-.224 1.312.15l75.351 83.412c.179.198.271.46.256.727s-.136.516-.336.692c-.171.151-.292.262-.334.303-.964.876-2.175 1.312-3.375 1.312zm-74.341-69.641c.589.445 1.518 1.306 3.128 2.794l33.039 30.564c8.481 7.848 36.16 33.457 36.253 33.55.955.89 2.438.986 3.534.272l-74.069-81.992c-3.433 2.385-7.662 5.358-8.12 6.25-.002.017-.004.032-.007.049-.029.285-.105 1.72-.099 2.048v.001c.104.732 1.446 1.914 3 3.282 1.012.891 2.159 1.9 3.39 3.132zm-6.228-8.677v.002c0-.001 0-.001 0-.002z" fill="#670a39"/><path d="m147.817 390.158c-5.036.978-8.379 1.592-9.47 1.035-.421-.079-9.22-2.239-9.22-2.239 0-.023-.182-1.342.534-2.092.989-1.046 3.183-3.058 8.402-7.492l.079.091 6.389 7.06 3.263 3.615z" fill="#fffdae"/><path d="m144.531 386.52-1.012.182c-2.774.512-4.604-.341-5.98-.591-.114-.023-5.207-1.273-5.491-1.342-.011-.023-.011-.034-.011-.057l6.105-5.252z" fill="#ffdf68"/><path d="m140.054 392.376c-.388 0-.743-.028-1.137-.077-.344-.052-.576-.086-.745-.123v.001c-.247-.044-.945-.216-2.5-.602-1.691-.42-4.101-1.019-6.775-1.648-.438-.104-.753-.486-.77-.936-.004-.105-.019-.194-.031-.275-.077-.523-.1-1.06.449-1.856.019-.033.04-.065.063-.096.793-1.063 3.581-3.66 8.775-8.172.411-.356 1.032-.319 1.398.084l9.754 10.789c.242.269.321.646.206.989s-.406.597-.761.664c-4.909.934-6.61 1.258-7.926 1.258zm-1.458-2.153c.149.028.591.094.593.094 1.219.149 1.854.078 6.669-.832l-7.902-8.74c-4.408 3.845-6.998 6.253-7.707 7.165-.011.019-.023.036-.035.054-.06.084-.098.146-.121.19 2.387.567 4.521 1.098 6.061 1.479 1.168.29 2.177.54 2.368.574.025.004.05.01.074.016z" fill="#670a39"/><path d="m393.821 298.14c-.01 0-.02 0-.03 0l-101.187-3.034c-.001 0-.002 0-.004 0l-.013-.001c-.012.001-.024 0-.036-.001h-.007c-.265-.014-.514-.132-.692-.329l-55.592-61.572c-5.505-6.092-8.209-14.815-7.235-23.335.952-8.321 5.306-15.57 12.26-20.412.073-.052.153-.092.237-.122 11.412-4.049 25.196-7.598 40.905-3.203 11.753 3.879 23.325 11.174 33.512 21.108 13.491 14.899 24.639 27.199 33.88 37.395 45.055 49.707 45.055 49.707 45.002 52.194-.002.089-.004.183-.002.287.007.274-.099.54-.294.734-.186.187-.44.291-.704.291zm-100.766-5.018c.167.002.346.007.536.013l99.091 2.972c-.903-2.202-7.105-9.045-44.344-50.13-9.241-10.195-20.39-22.495-33.838-37.351-9.927-9.679-21.234-16.812-32.655-20.583-15.07-4.213-28.435-.796-39.526 3.131-6.412 4.509-10.426 11.223-11.306 18.922-.91 7.957 1.606 16.095 6.732 21.767z" fill="#670a39"/><path d="m392.275 300.926c-44.645 47.032-107.751 126.691-149.213 186.194-.011 0-.011.012-.011.012-168.525-186.584 13.246 14.667-108.672-120.325-34.344-38.38-78.852-49.453-104.67-34.469 48.816-41.859 175.121-128.919 212.115-142.05.011 0 .023-.012.034-.012 26.328-9.343 48.388-7.053 73.384 17.678 23.903 23.656 21.68 21.655 77.181 85.321 1.963 2.362 1.841 5.508-.148 7.651z" fill="#d3e4e6"/><path d="m392.275 300.926c-44.645 47.032-107.751 126.691-149.213 186.194l-6.787-7.492c38.534-53.289 111.577-145.113 154.76-187.945 1.104 1.27 2.661 2.734 2.762 4.854.115 1.595-.311 3.085-1.522 4.389z" fill="#b9acc0"/><path d="m392.697 300.381c-.182.284-.387.546-.625.796-44.644 47.031-107.751 126.691-149.212 186.194-.011 0-.011.012-.011.012l-6.776-7.503-63.561-70.371-38.335-42.451c-28.9-32.298-64.995-45.258-91.097-39.62-4.911 1.057-9.481 2.774-13.574 5.15 48.816-41.859 175.121-128.919 212.114-142.05 20.554-7.299 44.508-10.948 73.418 17.667 22.055 21.828 20.896 20.6 75.794 83.729.455.523.921 1.057 1.387 1.592 1.694 1.955 1.853 4.763.478 6.855z" fill="#b9acc0"/><path d="m392.275 300.926c-43.814 46.156-105.398 123.724-146.87 182.841-.784 1.125-1.569 2.239-2.342 3.353-.011 0-.011.012-.011.012l-6.776-7.503-63.561-70.371c-33.416-35.471-44.427-53.879-70.872-69.451 0-.011-.011-.022-.034-.011-1.009-.605-3.338-1.937-4.809-2.683l.011-.012c-10.12-5.889-9.858-17.252-4.161-27.83 4.945-9.174 12.721-17.519 34.015-34.413 21.214-16.836 95.826-68.496 118.131-77.886 20.077-8.447 43.973-12.687 73.941 14.643 20.145 19.975 21.02 21.475 73.486 81.66 1.921 2.217 1.864 5.525-.148 7.651z" fill="#d5d6e4"/><path d="m152.983 330.69-10.345 9.801c-32.369-13.446-75.54-33.925-100.775-18.235 5.489-4.433 11.534-9.167 18.001-14.123 29.88-.579 58.805 6.666 93.119 22.557z" fill="#670a39"/><path d="m142.637 341.491c-.129 0-.259-.025-.383-.076-2.584-1.073-5.237-2.191-7.944-3.333-30.802-12.983-69.137-29.144-91.92-14.977-.449.277-1.037.16-1.343-.271s-.224-1.025.187-1.357c5.286-4.269 11.349-9.026 18.022-14.14.169-.13.376-.202.589-.206 29.641-.558 58.495 6.414 93.559 22.651.301.139.513.418.567.745s-.058.66-.299.888l-10.345 9.801c-.191.18-.438.275-.69.275zm-78.375-25.883c21.882 0 48.333 11.149 70.825 20.631 2.495 1.052 4.943 2.084 7.334 3.079l8.801-8.338c-34.041-15.604-62.182-22.384-91.012-21.854-3.973 3.046-7.727 5.965-11.228 8.727 4.728-1.561 9.864-2.245 15.28-2.245z" fill="#670a39"/><path d="m392.275 300.926c-43.814 46.156-105.398 123.724-146.87 182.841-.784 1.125-1.569 2.239-2.342 3.353-.011 0-.011.012-.011.012l-1.046-1.16c55.015-83.057 124.32-163.89 144.98-186.607 1.052-1.157 1.182-2.871.314-4.171-7.342-10.996-26.502-37.306-51.378-66.22 9.993 10.732 22.259 25.022 56.502 64.301 1.92 2.217 1.863 5.525-.149 7.651z" fill="#f6e4d5"/><path d="m97.011 337.101-.011.012c-11.676-6.162-23.385-9.777-34.299-10.857-12.483-1.239-23.897.807-32.992 6.082 2.103-1.807 4.354-3.695 6.73-5.661 8.254-3.581 18.008-4.877 28.535-3.831 8.038.796 16.519 2.968 25.102 6.526 1.25 3.102 3.535 5.751 6.935 7.729z" fill="#d5d6e4"/><path d="m245.404 483.767c-.784 1.125-1.569 2.239-2.342 3.353-.011 0-.011.012-.011.012l-6.776-7.503-63.561-70.371c-32.152-34.15-45.503-54.894-70.872-69.451 0-.011-.011-.022-.034-.011-1.338-.802-3.382-1.959-4.809-2.683l.011-.012c-3.399-1.978-5.684-4.627-6.935-7.73 37.724 15.57 55.155 46.333 84.912 76.476l63.561 70.371 6.776 7.503c.001 0 .001-.045.08.046z" fill="#f6e4d5"/><path d="m243.046 488.136c-.279 0-.552-.117-.745-.333l-6.765-7.509-101.897-112.82c-20.683-23.122-46.575-37.782-71.041-40.224-12.34-1.23-23.541.826-32.391 5.948-.448.257-1.019.134-1.318-.288s-.226-1.003.168-1.338c2.115-1.803 4.363-3.695 6.745-5.665 1.737-1.437 3.552-2.918 5.433-4.432 5.285-4.268 11.348-9.025 18.02-14.139 61.276-46.919 152.228-107.348 182.234-117.991 21.544-7.653 45.476-10.779 74.455 17.899.647.636 1.274 1.258 1.884 1.862.622.615 1.225 1.213 1.814 1.791 6.917 6.861 11.674 11.663 17.01 17.39 7.878 8.464 17.153 19.117 37.476 42.459 5.483 6.298 11.771 13.52 19.051 21.87 2.265 2.619 2.186 6.487-.181 8.999-.001.001-.002.002-.003.003-41.257 43.456-102.985 120.302-146.774 182.725-.38.548-.765 1.098-1.151 1.647-.398.567-.795 1.134-1.19 1.704-.038.056-.082.106-.13.152-.097.096-.214.173-.346.224-.117.045-.238.066-.358.066zm-187.289-163.232c2.301 0 4.65.118 7.039.356 24.958 2.491 51.321 17.391 72.33 40.877l107.824 119.393c.161-.229.321-.458.482-.688.384-.547.767-1.094 1.148-1.643 43.842-62.498 105.649-139.44 146.965-182.957 1.659-1.762 1.713-4.477.124-6.313-7.278-8.349-13.566-15.57-19.049-21.868-20.308-23.324-29.577-33.97-37.431-42.409-5.313-5.702-10.057-10.489-16.951-17.329-.587-.576-1.193-1.177-1.817-1.795-.608-.602-1.234-1.222-1.881-1.858-28.197-27.903-51.452-24.872-72.382-17.438-29.836 10.584-120.53 70.866-181.687 117.694-6.658 5.103-12.708 9.85-17.981 14.108-1.876 1.509-3.683 2.984-5.413 4.415-.309.256-.616.51-.921.764 5.918-2.192 12.531-3.309 19.601-3.309zm336.513-23.973h.01z" fill="#670a39"/><path d="m71.523 276.759c3.784-.841 4.453.492 1.473 2.97-7.504 6.239-20.178 16.78-20.196 16.795-3.796 3.154-8.144 6.764-13.125 10.909-8.866-.574-17.968-.703-27.488-.446-3.772.101-4.441-1.71-1.483-4.051l8.554-6.771.011-.001c10.985-8.687 23.319-18.446 27.655-21.88.888-.703 2.249-.61 3.037.203 1.852 1.909 3.803 3.991 5.624 5.78 4.854-1.03 10.182-2.229 15.938-3.508z" fill="#ec4949"/><path d="m39.675 308.433c-.021 0-.043-.001-.065-.002-8.678-.562-17.639-.708-27.397-.445-2.938.081-3.924-.921-4.233-1.771s-.194-2.245 2.103-4.063l8.554-6.771c.028-.021.056-.042.086-.061 10.965-8.672 23.254-18.395 27.579-21.821 1.299-1.028 3.221-.899 4.376.291.579.598 1.169 1.212 1.761 1.829 1.15 1.198 2.335 2.434 3.465 3.558 3.719-.793 7.711-1.682 11.956-2.627l3.445-.767c.894-.198 3.613-.803 4.389.779.775 1.579-1.359 3.354-2.061 3.937l-18.781 15.617c-.893.743-1.416 1.178-1.419 1.181l-1.137.944c-3.52 2.924-7.494 6.225-11.983 9.961-.178.15-.405.231-.638.231zm-18.312-2.574c6.222 0 12.164.183 17.978.551 4.365-3.632 8.238-6.85 11.679-9.707l21.336-17.742c.85-.707 1.222-1.177 1.383-1.438-.307-.033-.911-.028-1.999.214l-3.444.766c-4.454.992-8.629 1.922-12.503 2.743-.328.07-.669-.031-.908-.266-1.263-1.241-2.597-2.631-3.887-3.976-.589-.615-1.176-1.227-1.753-1.821-.435-.447-1.213-.502-1.699-.115-4.335 3.435-16.67 13.193-27.655 21.88-.027.021-.056.042-.085.061l-8.479 6.712c-1.362 1.078-1.495 1.729-1.464 1.812.031.085.555.509 2.299.454 3.141-.085 6.204-.128 9.201-.128zm50.16-29.1h.01z" fill="#670a39"/><path d="m243.051 487.132-143.926-6.992-6.764-7.492 143.607 6.639z" fill="#b9acc0"/><path d="m243.051 488.131c-.016 0-.032 0-.049-.001l-143.926-6.991c-.266-.013-.515-.132-.694-.329l-6.764-7.492c-.271-.3-.334-.732-.162-1.097.172-.366.551-.601.95-.572l143.607 6.64c.267.013.517.131.696.329l7.083 7.844c.271.3.334.733.161 1.098-.164.35-.517.571-.902.571zm-143.462-8.969 141.108 6.854-5.191-5.749-140.796-6.51z" fill="#670a39"/><path d="m350.347 282.225c-1.114 2.058-2.535 3.889-4.286 5.457-12.596 11.334-37.073 4.661-54.694-14.905-17.61-19.554-21.691-44.61-9.095-55.945.091-.079.17-.148.261-.227 12.653-11.016 36.936-4.309 54.432 15.12 15.167 16.86 20.306 37.778 13.382 50.5z" fill="#b9acc0"/><ellipse cx="247.742" cy="313.592" fill="#b9acc0" rx="35.07" ry="54.49" transform="matrix(.7431 -.6691 .6691 .7431 -146.2 246.3187)"/><ellipse cx="316.44" cy="247.707" fill="#e7dcdc" rx="30.678" ry="47.666" transform="matrix(.7431 -.6691 .6691 .7431 -84.4693 275.364)"/><path d="m352.621 277.677c-12.665 11.016-36.936 4.298-54.432-15.132-15.166-16.848-20.304-37.777-13.381-50.487 12.653-11.016 36.936-4.309 54.432 15.12 15.166 16.86 20.304 37.778 13.381 50.499z" fill="#fff8ea"/><ellipse cx="318.714" cy="232.352" fill="#670a39" rx="15.769" ry="32.071" transform="matrix(.6614 -.75 .75 .6614 -66.356 317.7157)"/><path d="m334.611 257.675c-7.553 0-17.686-4.543-26.988-12.747-6.537-5.765-11.587-12.453-14.217-18.832-2.726-6.611-2.547-12.157.504-15.617 3.051-3.461 8.532-4.331 15.433-2.454 6.658 1.812 13.925 5.985 20.462 11.75 13.909 12.266 19.932 27.397 13.713 34.45-2.06 2.336-5.167 3.45-8.907 3.45zm-31.871-48.624c-3.203 0-5.722.928-7.329 2.75-2.52 2.858-2.575 7.664-.155 13.533 2.516 6.102 7.378 12.527 13.691 18.094 12.849 11.332 27.685 15.581 33.072 9.475 5.386-6.108-.686-20.297-13.536-31.628-6.313-5.566-13.296-9.587-19.665-11.32-2.219-.604-4.259-.904-6.078-.904z" fill="#670a39"/><ellipse cx="304.688" cy="214.742" fill="#fff8ea" rx="4.317" ry="8.065" transform="matrix(.5984 -.8012 .8012 .5984 -49.6914 330.3458)"/><path d="m332.699 289.616c-12.637 0-27.823-7.417-39.801-20.717-8.645-9.599-14.369-20.809-16.119-31.562-1.776-10.917.745-20.078 7.098-25.794l.274-.239c13.024-11.338 38.07-4.518 55.832 15.206 15.269 16.975 20.827 38.212 13.516 51.646-1.183 2.186-2.697 4.111-4.497 5.725-4.321 3.886-9.995 5.735-16.303 5.735zm-32.488-81.839c-5.706 0-10.824 1.62-14.746 5.035l-.257.224c-5.822 5.239-8.117 13.757-6.454 23.979 1.688 10.38 7.24 21.229 15.631 30.546 17.219 19.119 41.121 25.771 53.282 14.83 1.631-1.461 3.002-3.207 4.075-5.19 0 0 .001-.001.001-.001 6.803-12.502 1.232-33.258-13.246-49.353-11.561-12.838-26.235-20.07-38.286-20.07z" fill="#670a39"/><path d="m291.083 343.797c-1.216 2.137-2.751 4.07-4.604 5.741-14.393 12.96-42.393 5.331-62.527-17.031-20.111-22.327-24.783-50.92-10.459-63.903.022-.023.034-.034.057-.057 14.393-12.96 42.393-5.332 62.527 17.03 17.541 19.487 23.339 43.725 15.006 58.22z" fill="#e7dcdc"/><path d="m291.083 343.797c-.023.023-.034.034-.057.057-14.393 12.96-42.393 5.331-62.527-17.031-17.542-19.485-23.34-43.723-15.006-58.218.022-.023.034-.034.057-.057 14.393-12.96 42.393-5.332 62.527 17.03 17.541 19.486 23.339 43.724 15.006 58.219z" fill="#fff8ea"/><ellipse cx="251.128" cy="292.981" fill="#670a39" rx="20.676" ry="38.052" transform="matrix(.6614 -.75 .75 .6614 -134.7137 287.5524)"/><path d="m268.319 323.493c-9.223 0-21.089-5.049-31.528-14.254-16.15-14.242-22.858-33.122-14.953-42.087 7.905-8.963 27.476-4.67 43.626 9.571 16.15 14.243 22.858 33.123 14.953 42.087-2.795 3.17-7.052 4.683-12.098 4.683zm-34.323-59.113c-4.474 0-8.212 1.32-10.658 4.094-7.176 8.139-.548 25.752 14.776 39.265 15.323 13.512 33.627 17.885 40.804 9.749 7.176-8.138.547-25.751-14.776-39.265-10.1-8.906-21.496-13.843-30.146-13.843z" fill="#670a39"/><ellipse cx="235.514" cy="272.492" fill="#fff8ea" rx="6.388" ry="10.219" transform="matrix(.6325 -.7745 .7745 .6325 -124.5099 282.5529)"/><path d="m187.245 290.68c-.472 0-.892-.336-.982-.816-2.333-12.515-.119-24.091 6.405-33.476 2.972-4.277 6.725-7.911 11.154-10.802.462-.3 1.082-.172 1.384.291s.172 1.082-.291 1.385c-4.213 2.749-7.781 6.203-10.605 10.267-6.211 8.937-8.314 19.991-6.081 31.968.101.543-.257 1.065-.8 1.167-.062.01-.123.016-.184.016z" fill="#670a39"/><path d="m268.587 356.816c-14.401 0-31.716-8.465-45.377-23.637-9.866-10.957-16.398-23.747-18.392-36.015-2.021-12.428.844-22.854 8.067-29.357 7.223-6.504 17.891-8.264 30.04-4.955 11.992 3.266 24.03 11.099 33.896 22.057 9.866 10.957 16.398 23.748 18.392 36.016 2.021 12.428-.844 22.854-8.067 29.357-4.919 4.428-11.376 6.534-18.559 6.534zm-37.121-93.594c-6.852 0-12.78 2.053-17.243 6.071-6.7 6.032-9.339 15.816-7.431 27.55 1.934 11.894 8.292 24.322 17.905 34.998 19.736 21.917 47.15 29.522 61.111 16.954 6.7-6.032 9.339-15.816 7.431-27.55-1.934-11.894-8.292-24.323-17.905-34.999s-21.309-18.299-32.935-21.465c-3.83-1.042-7.498-1.559-10.933-1.559z" fill="#670a39"/><path d="m301.151 197.032c-.172 0-.346-.044-.505-.138-9.69-5.686-20.784-5.996-30.437-.852-.487.257-1.093.074-1.353-.412-.26-.488-.075-1.094.412-1.354 10.28-5.477 22.085-5.153 32.389.893.476.279.636.892.357 1.368-.185.318-.519.495-.863.495z" fill="#670a39"/><path d="m240.288 473.33-3.752 5.98-145.335-16.064-15.234-10.652-2.751-1.921-7.458-5.219-64.687-45.224c.136-.568.648-3.933 2.706-7.663 5.525-10.004 9.902-17.871 19.577-20.77 20.975-6.287 52.932-2.865 82.183 10.38 2.762 1.25 5.502 2.58 8.208 4.025 1.239.636 2.467 1.307 3.684 2.001 3.717 2.092 7.355 4.365 10.88 6.798l111.332 75.237c1.011.693 1.307 2.057.647 3.092z" fill="#d5d6e4"/><path d="m240.288 473.33-3.752 5.98-45.474-5.025 16.268-25.875 32.31 21.828c1.012.693 1.308 2.057.648 3.092z" fill="#fff8ea"/><path d="m117.429 388.202-39.654 63.084-1.808 1.307-2.751-1.921 36.482-58.037 4.047-6.434c1.239.637 2.467 1.308 3.684 2.001z" fill="#b9acc0"/><path d="m105.537 382.177-39.779 63.277-64.687-45.224c.136-.568.648-3.933 2.706-7.663 5.525-10.004 9.902-17.871 19.577-20.77 20.975-6.286 52.932-2.864 82.183 10.38z" fill="#b9acc0"/><path d="m236.537 480.31c-.036 0-.073-.002-.11-.006l-145.335-16.064c-.167-.019-.326-.078-.463-.175l-90.13-63.016c-.337-.235-.495-.652-.399-1.053l.055-.264c.21-1.041.849-4.208 2.747-7.648 5.621-10.178 10.061-18.217 20.165-21.245 21.88-6.557 54.413-2.465 82.883 10.427 8.135 3.675 15.849 8.019 22.927 12.912l111.324 75.23c1.473 1.01 1.881 2.963.935 4.453l-3.751 5.979c-.185.295-.507.47-.848.47zm-144.972-18.03 144.458 15.968 3.418-5.449c.001-.002.003-.004.004-.007.367-.575.205-1.335-.37-1.729l-111.327-75.234c-6.988-4.83-14.597-9.114-22.623-12.74-28.056-12.704-60.041-16.762-81.484-10.333-9.322 2.794-13.588 10.518-18.989 20.296-1.577 2.858-2.215 5.53-2.468 6.736z" fill="#670a39"/><path d="m236.537 479.31-.568-.023-134.808-6.23-8.799-.41-2.41-.114-79.046-54.159c-12.016-8.231-13.426-22.158-2.433-30.627 15.666-12.074 44.156-12.358 72.168-4.638 16.553 4.525 32.935 11.858 46.418 21.179l108.036 74.032z" fill="#9c819c"/><path d="m101.16 473.057c-.114-.005-11.959-.558-11.21-.523l-79.046-54.159c-12.016-8.231-13.426-22.158-2.433-30.627 15.666-12.074 44.156-12.358 72.168-4.638-26.125-5.866-51.875-4.911-66.483 5.786-10.994 8.049-9.584 21.282 2.433 29.104z" fill="#b9acc0"/><path d="m236.537 480.31c-.013 0-.026 0-.04-.001l-.568-.022-146.026-6.754c-.185-.009-.365-.069-.518-.174l-79.045-54.159c-6.388-4.376-10.154-10.559-10.333-16.963-.163-5.826 2.627-11.253 7.855-15.281 11.962-9.217 31.77-12.249 55.775-8.541 22.702 3.507 46.025 12.638 63.989 25.052l109.476 75.019c.368.252.524.717.384 1.14-.136.409-.52.684-.949.684zm-146.255-8.762 2.127.101 140.671 6.504-106.587-73.039c-34.571-23.891-92.125-36.053-117.41-16.574-4.708 3.627-7.221 8.472-7.077 13.642.161 5.757 3.61 11.358 9.464 15.368z" fill="#670a39"/><path d="m256.778 397.512c-2.778 0-5.466-.28-8.007-.867-.538-.125-.874-.662-.749-1.2.125-.537.662-.872 1.199-.749 16.753 3.869 40.304-6.22 51.426-22.035.318-.452.942-.56 1.393-.243.452.318.561.941.243 1.394-9.862 14.023-29.193 23.7-45.505 23.7z" fill="#670a39"/><path d="m243.852 405.386c-.227 0-.454-.076-.642-.233-.423-.354-.479-.985-.124-1.409 4.808-5.738 6.372-12.172 4.289-17.65-.196-.517.063-1.094.579-1.29.517-.198 1.094.063 1.29.579 2.348 6.176.661 13.337-4.626 19.646-.197.235-.481.357-.766.357z" fill="#670a39"/><path d="m181.158 353.217-33.116-27.336s-3.691 4.925-5.01 6.797c-4.667 6.625-1.338 17.449 6.665 24.507 8.904 7.852 21.073 8.604 27.18 1.68.412-.467 4.281-5.648 4.281-5.648z" fill="#9c819c"/><path d="m165.563 364.605c-.425 0-.854-.014-1.288-.04-5.354-.331-10.766-2.686-15.239-6.63-8.654-7.632-11.65-18.979-6.822-25.833 1.312-1.861 4.876-6.618 5.027-6.819.164-.219.41-.361.682-.394.271-.028.544.049.755.222l33.116 27.335c.411.34.484.942.165 1.37-.398.533-3.905 5.227-4.332 5.71-2.91 3.3-7.158 5.079-12.064 5.079zm-17.349-37.283c-1.111 1.488-3.397 4.56-4.365 5.933-4.249 6.032-1.39 16.214 6.509 23.181 4.141 3.651 9.127 5.83 14.039 6.133 4.818.307 8.984-1.251 11.729-4.364.247-.28 2.185-2.853 3.659-4.822z" fill="#670a39"/><path d="m153.842 331.758-12.926 8.811c-49.117-23.87-83.383-31.64-130.214-29.544-.581.026-1.093-.389-1.178-.965l-.645-4.351 8.676-4.897c47.067-3.024 87.209 6.265 136.287 30.946z" fill="#c36b62"/><path d="m140.916 341.568c-.149 0-.298-.033-.437-.101-49.039-23.831-82.986-31.54-129.732-29.443-1.1.06-2.051-.732-2.212-1.817l-.645-4.351c-.061-.409.137-.813.498-1.018l8.677-4.897c.131-.074.277-.117.427-.127 46.649-3 87.561 6.288 136.799 31.05.317.159.525.474.549.827s-.142.693-.435.893l-12.926 8.811c-.169.114-.365.173-.563.173zm-116.02-31.873c39.963 0 71.934 8.394 115.935 29.721l11.041-7.526c-48.756-24.298-87.722-33.03-134.024-30.094l-7.879 4.447.544 3.671c.01.067.076.109.144.112 4.872-.218 9.613-.331 14.239-.331z" fill="#670a39"/><path d="m161.409 339.086c-1 1.943-2.818 3.195-4.8 3.562-1.443.279-2.991.078-4.396-.645-42.636-22.089-75.588-32.186-112.538-34.571-8.866-.574-17.968-.703-27.488-.446-3.772.101-4.441-1.71-1.483-4.051l8.554-6.771.011-.001c11.5-.645 22.599-.541 33.531.361 34.446 2.792 67.236 13.436 105.692 33.366 3.338 1.735 4.653 5.858 2.917 9.196z" fill="#e48860"/><path d="m130.093 317.444c-.05 0-.11-.004-.16-.011-5.52-.828-12.228-3.118-18.715-5.333-2.036-.695-4.068-1.39-6.059-2.037-6.933-2.256-13.456-2.385-21.01-2.533-6.812-.135-14.532-.286-23.555-2.203-4.841-1.025-7.898-3.01-8.387-5.442-.298-1.481.415-2.943 1.955-4.01.454-.314 1.077-.201 1.391.253s.201 1.077-.253 1.392c-.612.424-1.306 1.11-1.133 1.971.235 1.171 2.169 2.89 6.842 3.88 8.837 1.878 16.129 2.021 23.18 2.16 7.392.146 14.374.283 21.589 2.631 2 .651 4.041 1.348 6.086 2.047 6.397 2.184 13.011 4.442 18.35 5.245.49.065.873.484.873.991 0 .552-.442.999-.994.999z" fill="#ffae5d"/><path d="m54.299 309.816c-.129 0-.261-.027-.384-.078-4.529-1.483-8.837-3.165-13.004-4.792-7.337-2.863-14.267-5.569-22.432-7.352-.54-.117-.881-.65-.764-1.189.118-.539.651-.888 1.19-.764 8.319 1.815 15.646 4.676 22.733 7.442 4.156 1.622 8.454 3.3 12.948 4.771.053.017.104.039.153.064.331.163.559.504.559.897.001.554-.447 1.001-.999 1.001z" fill="#ffae5d"/><path d="m157.479 337.123c-.141 0-.284-.029-.42-.093-26.566-12.317-46.669-18.213-74.171-21.754-.548-.071-.935-.572-.864-1.12.07-.548.571-.924 1.12-.864 27.725 3.57 47.987 9.513 74.757 21.924.501.232.719.827.487 1.328-.17.364-.531.579-.909.579z" fill="#ffae5d"/><path d="m155.357 343.768c-1.236 0-2.478-.298-3.601-.875-42.635-22.089-75.125-32.072-112.145-34.462-8.678-.562-17.639-.708-27.397-.445-2.938.081-3.924-.921-4.233-1.771s-.194-2.245 2.103-4.063l8.554-6.771c.131-.104.286-.173.451-.201.038-.007.087-.013.125-.015 11.723-.659 22.736-.538 33.669.362 34.005 2.758 66.719 13.082 106.07 33.476 1.853.963 3.221 2.59 3.854 4.582.633 1.993.453 4.109-.508 5.96-1.11 2.154-3.117 3.645-5.507 4.087-.473.09-.953.136-1.435.136zm-133.994-37.909c6.365 0 12.435.191 18.376.576 37.318 2.408 70.037 12.456 112.934 34.681 1.161.596 2.492.789 3.746.551 1.785-.331 3.277-1.438 4.101-3.038.001-.001.001-.002.002-.003.715-1.376.849-2.951.378-4.436-.472-1.483-1.491-2.695-2.87-3.412-39.103-20.266-71.582-30.522-105.311-33.257-10.746-.887-21.572-1.011-33.088-.377l-8.307 6.575c-1.362 1.078-1.495 1.729-1.464 1.812.031.085.555.509 2.299.454 3.144-.083 6.207-.126 9.204-.126z" fill="#670a39"/><ellipse cx="164.165" cy="340.1" fill="#d5d6e4" rx="16.717" ry="21.497" transform="matrix(.6614 -.75 .75 .6614 -199.4987 238.2821)"/><path d="m168.953 360.04c-5.497 0-11.509-2.245-16.506-6.651-9.304-8.205-11.616-20.841-5.155-28.168 6.461-7.326 19.287-6.611 28.591 1.592 9.304 8.204 11.616 20.84 5.155 28.167-2.991 3.391-7.347 5.06-12.085 5.06zm-9.578-37.897c-4.174 0-7.979 1.447-10.583 4.399-5.732 6.5-3.499 17.87 4.978 25.346 8.477 7.475 20.036 8.267 25.768 1.769 5.732-6.5 3.499-17.87-4.978-25.345-4.626-4.079-10.171-6.169-15.185-6.169zm20.913 32.175h.01z" fill="#670a39"/><ellipse cx="165.729" cy="337.642" fill="#b9acc0" rx="8.366" ry="9.874" transform="matrix(.6329 -.7742 .7742 .6329 -200.5721 252.248)"/><ellipse cx="165.409" cy="335.913" fill="#e7dcdc" rx="6.183" ry="7.297" transform="matrix(.6329 -.7742 .7742 .6329 -199.3504 251.366)"/><ellipse cx="167.609" cy="334.82" fill="#fff8ea" rx="3.319" ry="3.917" transform="matrix(.6329 -.7742 .7742 .6329 -197.6964 252.6676)"/><path d="m166.512 343.558c-1.921 0-3.944-.69-5.649-2.084-1.692-1.384-2.828-3.252-3.199-5.261-.382-2.07.087-4.042 1.322-5.552 2.507-3.066 7.428-3.205 10.97-.31 1.692 1.384 2.828 3.252 3.199 5.261.382 2.07-.087 4.042-1.322 5.552-1.3 1.591-3.251 2.394-5.321 2.394zm-2.211-13.298c-1.484 0-2.859.556-3.767 1.667-.856 1.047-1.177 2.44-.903 3.923.285 1.544 1.172 2.991 2.498 4.075 2.688 2.196 6.347 2.187 8.156-.026.856-1.047 1.177-2.44.903-3.923-.285-1.544-1.172-2.991-2.498-4.075-1.339-1.094-2.917-1.641-4.389-1.641z" fill="#670a39"/><path d="m216.038 88.341c-2.876-.746-5.876-2.023-7.805-4.563-10.704-14.096-22.534-17.847-36.157-16.498-10.592 1.049-21.317 2.052-25.215-6.312-3.898-8.363 3.243-17.532 11.679-21.266 20.358-9.012 48.128-6.047 74.036 19.667 13.067 12.969-.253 33.197-16.538 28.972z" fill="#9c819c"/><path d="m208.234 84.778c-.302 0-.6-.136-.797-.396-9.572-12.606-20.447-17.569-35.262-16.107-10.311 1.02-21.996 2.177-26.22-6.884-1.485-3.187-1.574-6.724-.258-10.231 1.906-5.079 6.672-9.82 12.438-12.372 23.87-10.569 51.961-3.138 75.145 19.872.392.39.394 1.022.005 1.414-.389.394-1.022.396-1.414.006-22.577-22.408-49.839-29.683-72.927-19.464-5.293 2.343-9.651 6.652-11.375 11.246-1.139 3.036-1.073 5.958.198 8.684 3.625 7.777 14.09 6.739 24.21 5.739 15.585-1.548 27.011 3.665 37.052 16.889.334.439.248 1.067-.192 1.401-.18.136-.393.203-.603.203z" fill="#670a39"/><path d="m265.931 107.811c.167 3.278-.911 6.712-2.722 9.867-2.734 4.767-7.156 8.901-11.49 10.89-16.001 7.345-33.769 6.168-45.682-4.634-15.057-13.679-22.358-38.248-10.823-57.994 1.489-2.545 3.278-5.011 5.411-7.356 12.423-13.69 33.114-20.079 50.582-18.301 1.611.167 3.2.4 4.756.7 36.726 7.111 39.438 55.549 9.968 66.828z" fill="#9c819c"/><path d="m224.777 72.983c-12.401-12.42-24.547-14.684-33.287-9.316-7.163 4.4-16.499 1.515-19.771-6.399-2.736-6.619-.502-15.236 6.77-19.451 17.511-10.149 47.087-10.636 67.787 12.559 5.563 6.233 5.26 16.346-.677 22.589-5.927 6.232-14.911 5.939-20.822.018z" fill="#9c819c"/><path d="m184.257 66.725c-1.511 0-3.024-.235-4.489-.711-4.049-1.314-7.32-4.363-8.974-8.365-3.143-7.601-.051-16.499 7.193-20.697 18.881-10.942 48.657-10.074 69.035 12.758.368.412.332 1.044-.08 1.412-.412.367-1.044.333-1.412-.08-19.665-22.034-48.359-22.896-66.539-12.359-7.269 4.213-8.696 12.523-6.347 18.203 1.43 3.459 4.253 6.094 7.744 7.228 3.52 1.142 7.376.671 10.58-1.298 6.475-3.977 14.538-3.81 22.703.475.489.257.677.861.421 1.351-.256.488-.861.674-1.35.421-7.624-4.001-14.792-4.188-20.727-.541-2.376 1.455-5.062 2.203-7.758 2.203z" fill="#670a39"/><path d="m276.588 52.35-21.491 17.524c-2.878.033-5.733-.967-8.323-2.856-.056-.044-.122-.089-.178-.123-2.267-1.645-4.412-3.022-6.467-4.145-11.068-6.089-19.513-5.112-28.802-.133-5.201 2.789-11.401 4.567-16.113 3.322-2.39-.633-4.4-2.044-5.701-4.512-3.734-7.1-.233-15.957 5.923-21.191 14.468-12.301 39.715-14.668 63.339-1.422 5.712 3.2 11.335 7.323 16.69 12.445.378.358.745.725 1.123 1.091z" fill="#9c819c"/><path d="m198.575 67.354c-1.37 0-2.733-.168-4.036-.566-2.633-.806-4.62-2.452-5.906-4.894-4.104-7.787-.01-17.172 6.156-22.417 13.138-11.181 39.184-16.349 65.323-1.273.479.275.643.888.367 1.366-.276.477-.887.643-1.366.366-25.3-14.588-50.407-9.674-63.028 1.064-5.559 4.729-9.296 13.104-5.682 19.962 1.029 1.952 2.617 3.269 4.722 3.912 3.937 1.207 9.818.029 15.733-3.141 4.652-2.494 8.717-3.807 12.793-4.131.551-.038 1.032.368 1.076.918.044.551-.367 1.032-.918 1.076-3.791.301-7.606 1.54-12.006 3.898-2.438 1.308-7.883 3.86-13.228 3.86z" fill="#670a39"/><path d="m275.466 51.261-28.869 15.634-8.201 4.445c.156-2.889.756-5.8 1.734-8.59.144-.444.311-.877.477-1.311 0 0-1.933-9.912 7.89-17.002.541-.393 2.779-1.775 5.647-3.311 2.885-1.545 6.385-1.378 9.124.412 4.163 2.72 8.253 5.95 12.198 9.723z" fill="#d5d6e4"/><path d="m259.611 39.069c-21.215 10.836-43.336 25.341-51.179 41.966-20.455-5.762-33.069-9.695-33.069-9.695z" fill="#670a39"/><path d="m208.433 82.036c-.09 0-.181-.012-.271-.037-20.234-5.7-32.969-9.664-33.095-9.703-.407-.127-.688-.498-.702-.923-.014-.426.244-.813.642-.966l84.247-32.271c.497-.189 1.055.042 1.271.526.216.486.015 1.056-.459 1.298-27.231 13.908-44.299 27.872-50.729 41.502-.169.357-.526.574-.904.574zm-30.001-10.8c4.702 1.433 15.148 4.569 29.467 8.61 5.702-11.423 18.504-22.997 38.146-34.509z" fill="#670a39"/><path d="m126.842 107.742 198.168-103.658c3.802-1.989 3.473-2.913-.731-2.054l-215.4 44.013z" fill="#dabc6c"/><path d="m127.99 107.173 25.127-12.469-31.607-3.644 4.942 15.461c.214.672.907.965 1.538.652z" fill="#ffdf68"/><path d="m288.1 23.4-160.106 83.778c-.606.3-1.334-.016-1.543-.66l-5.054-15.792z" fill="#ffdf68"/><path d="m127.494 108.287c-.277 0-.552-.056-.812-.165-.565-.239-.996-.711-1.182-1.295l-7.471-24.42c-.161-.528.136-1.088.664-1.249.528-.162 1.087.135 1.249.663l7.467 24.408.582.943-.469-.884 25.127-13.331c.488-.259 1.093-.073 1.352.415s.073 1.094-.415 1.353l-25.127 13.331c-.31.153-.639.231-.965.231z" fill="#670a39"/><path d="m127.504 108.291c-.276 0-.551-.055-.811-.164-.568-.239-1.002-.713-1.192-1.301l-5.055-15.795-12.533-44.72c-.075-.267-.035-.554.109-.79.145-.237.381-.403.653-.459l215.028-43.934c2.569-.524 4.246-.607 4.676.602s-.923 2.205-3.245 3.42l-196.676 102.914c-.305.151-.631.227-.954.227zm-17.375-61.485 12.233 43.65 5.043 15.757.591.965-.464-.886 196.675-102.914c.327-.171.608-.326.85-.467-.276.045-.592.103-.953.176zm213.774-44.698h.01z" fill="#670a39"/><path d="m323.88 1.065c4.423-.331 4.628.629.456 2.133l-121.314 43.745-122.115 44.027c-3.738 1.348-4.873-.171-2.522-3.374l24.326-33.148 8.23-1.941-2.058-6.47 21.23-28.936c.761-1.038 1.939-1.69 3.222-1.786l98.287-7.344z" fill="#fffdae"/><path d="m133.586 20.804 166.423-12.444-213.877 77.116z" fill="#ffed8d"/><path d="m324.576 2.194-213.635 50.314-2.058-6.47 215.659-44.067z" fill="#dabc6c"/><path d="m78.624 92.458c-1.113 0-1.726-.419-2.062-.869-.54-.723-.802-2.104 1.017-4.584l24.326-33.147c.141-.191.345-.327.577-.382l7.179-1.693-1.731-5.441c-.097-.304-.042-.637.147-.895l21.23-28.937c.936-1.275 2.377-2.074 3.954-2.191l98.287-7.344 92.258-6.906c2.585-.195 4.24-.066 4.503 1.167.263 1.232-1.195 2.025-3.634 2.904l-243.428 87.771c-1.091.393-1.949.547-2.623.547zm-.452-2.056c.017-.001.562.289 2.397-.372l243.428-87.772c.232-.084.443-.163.634-.238-.205.01-.43.023-.676.042l-.075-.997.075.997-92.259 6.906-98.287 7.344c-.993.074-1.901.577-2.49 1.381l-20.929 28.526 1.904 5.985c.084.265.054.554-.083.796s-.369.416-.64.48l-7.871 1.856-24.108 32.852c-1.171 1.595-1.027 2.193-1.02 2.214-.001 0-.001 0 0 0z" fill="#670a39"/><path d="m102.713 55.445c-.453 0-.864-.311-.973-.771-.127-.538.207-1.076.744-1.203l163.709-38.552-157.113 32.103c-.541.111-1.069-.238-1.18-.779s.238-1.069.78-1.18l216.211-44.179c.305-.062.622.021.857.226.235.204.361.506.342.817l-.014.216c-.028.439-.34.809-.769.91l-222.364 52.365c-.077.018-.154.027-.23.027z" fill="#670a39"/><path d="m164.389 88.319c-11.76-4.892-10.558-14.428-3.896-19.105 9.072-6.369 22.307-7.219 34.431 2.465 12.094 9.66 17.791 2.293 31.297 5.853 13.505 3.559 21.109 12.852 21.253 27.815.143 14.964-7.874 27.884-16.599 27.884-11.251 0-22.441-1.468-34.3-11.988-9.776-8.673-13.756-25.258-32.186-32.924z" fill="#9c819c"/><path d="m265.931 107.811c.378 1.845.267 3.6-.155 5.467-.434 1.878-1.611 3.589-2.567 4.4-18.113 15.324-44.704 6.4-57.472-17.724-11.645-22.002-22.913-20.901-36.025-22.424-8.345-.956-8.934-11.724 4.712-13.09 6.556-.311 13.701 1.811 20.501 7.234 12.09 9.667 17.791 2.3 31.292 5.856 6.345 1.678 12.312 4.745 16.857 9.078-3.589-4.345-4.956-9.768-4.678-15.268l36.747-19.901c4.878 4.611 8.39 10.167 9.823 16.757 2 3.005 2.567 18.467-5.928 29.774-1.827 4.978-7.445 9.064-13.107 9.841z" fill="#d5d6e4"/><path d="m243.074 87.607c-.288 0-.574-.124-.772-.363-6.531-7.913-5.636-18.709-2.619-26.175.207-.512.79-.76 1.302-.552.512.206.759.789.552 1.302-2.801 6.931-3.665 16.915 2.307 24.151.352.426.291 1.057-.135 1.408-.186.154-.411.229-.635.229z" fill="#670a39"/><path d="m276.191 102.334c-.262 0-.524-.103-.721-.307-.383-.397-.371-1.031.027-1.414 11.137-10.718 12.636-29.95 3.412-43.784-4.305-6.458-13.18-13.034-19.472-16.704-.477-.278-.638-.891-.36-1.368.278-.476.89-.637 1.368-.36 6.787 3.959 15.639 10.589 20.128 17.323 9.906 14.857 8.32 34.777-3.69 46.335-.193.187-.443.279-.692.279z" fill="#670a39"/><path d="m404.293 775.561c17.581-21.006 57.809-29.14 38.07-30.447-13.457-.878-32.392 3.023-47.982 10.546 10.21-14.823 38.681-62.138 29.58-77.484-.989-1.678-2.467-2.823-4.456-3.367-26.675-7.255-69.635 43.651-82.229 85.574-7.246-13.7-16.836-25.581-27.369-37.192-30.887-33.991-64.751-10.375-42.415 31.792 4.356 8.234 9.49 15.157 15.168 20.969-15.373-.424-34.794.045-41.068.767-40.72 4.683-6.434 24.691 22.78 25.024-42.392 0 13.858 19.28 97.262 19.28 80.73 0 126.72-20.857 91.595-25.625 53.85-.002 5.102-17.776-48.936-19.837z" fill="#829a9e"/><path d="m419.517 776.472c-7.389 1.3-14.412 3.545-22.702 7.878 2.867-3.723 4.978-6.034 7.478-8.79 2.353.109 6.927.158 15.224.912z" fill="#4c4c4c"/><path d="m309.908 723.19c12.757 14.046 21.091 25.335 27.347 37.148-.656 2.122-1.234 4.234-1.7 6.311-6.412-11.89-14.923-23.358-27.747-37.536-17.479-19.302-35.914-20.735-45.237-10.879 3.044-6.723 8.934-10.768 16.279-11.234 9.011-.567 20.223 4.267 31.058 16.19z" fill="#d3e4e6"/><path d="m326.273 743.266c1.8 2.844 9.448 14.182 10.959 17.038-1.811 5.945-2.956 11.69-3.256 16.957-.371-7.528-1.339-20.131-7.703-33.995z" fill="#4c4c4c"/><path d="m319.027 798.38c-47.361-5.775-57.51-18.041-43.81-22.565 3.399-.102 6.126.151 7.442.135 10.812 11.084 23.544 18.11 36.368 22.43z" fill="#4c4c4c"/><path d="m376.779 777.916c24.033-30.899 48.032-77.34 39.199-90.437-2.262-6.719-20.793-7.333-43.473 12.187 17.644-19.281 35.663-27.932 46.998-24.863 2.421.659 4.172 2.49 4.502 3.479 9.674 14.529-21.555 71.088-47.226 99.634z" fill="#d3e4e6"/><path d="m453.235 795.555c5.34.79 8.83 1.86 10.69 3.12.01 0 .02.02.02.02 11.29 7.67-37.51 22.33-95.57 22.33-1.21 0-2.43 0-3.66-.01h-.19c-.74 0-1.49 0-2.24-.01-12.32-.1-25.54-.49-38.81-1.38-1.14-.07-2.28-.16-3.42-.24-14.76-1.1-29.5-2.84-43.09-5.53-.89-.17-1.78-.35-2.65-.53-.84-.18-1.67-.36-2.5-.54-.69-.15-1.39-.31-2.08-.47-1.29-.29-2.56-.6-3.81-.91 31.25 6.54 132.73 10.08 168.03-5.5 9.32-4.11 7.31-10.53-3.05-11.96 46.79-2.74 33.29-13.09-16.73-17.83 31.43 2.29 58.9 9.38 62.12 14.29 1.74 2.62-3.42 4.62-18.55 4.95-.056-.014-1.014.084-4.51.2z" fill="#bfd3ce"/><path d="m447.549 747.051c-31.415 3.938-44.982 9.518-59.162 16.893 2.012-2.649 4.002-5.411 5.991-8.288 26.63-12.829 55.149-11.902 53.171-8.605z" fill="#bfd3ce"/><path d="m319.031 799.385c-.106 0-.214-.017-.32-.053-14.414-4.86-26.784-12.492-36.765-22.684-.183-.187-.286-.438-.286-.699 0-.553.448-1.005 1-1.005.319 0 .604.147.787.379 9.746 9.927 21.825 17.367 35.902 22.114.523.176.804.743.628 1.267-.14.419-.529.681-.946.681z" fill="#670a39"/><path d="m368.257 787.518c-.275 0-.548-.112-.746-.334-.368-.411-.333-1.044.079-1.411 2.711-2.424 5.552-5.292 8.444-8.523 27.07-30.104 55.865-85.301 47.139-98.41-.048-.072-.087-.151-.115-.234-.19-.563-1.604-2.233-3.814-2.832-11.444-3.104-29.501 6.536-46.005 24.567-8.017 8.754-16.098 20.159-22.755 32.114-1.845 3.318-3.562 6.643-5.105 9.879-.217.457-.422.889-.617 1.311-2.751 5.926-4.962 11.628-6.574 16.95-1.846 6.06-2.928 11.687-3.215 16.724-.031.551-.505.954-1.055.941-.551-.031-.973-.504-.942-1.055.296-5.197 1.406-10.981 3.298-17.191 1.638-5.41 3.883-11.2 6.672-17.209.197-.427.405-.865.614-1.305 1.573-3.301 3.31-6.662 5.175-10.018 6.73-12.088 14.908-23.627 23.027-32.492 17.266-18.863 35.66-28.5 48.004-25.146 2.5.676 4.569 2.562 5.136 3.988 6.103 9.438-3.864 32.514-10.366 45.46-9.917 19.744-24.1 40.932-37.014 55.294-2.94 3.285-5.834 6.205-8.6 8.678-.189.17-.427.254-.665.254z" fill="#670a39"/><path d="m396.814 785.351c-.213 0-.428-.067-.609-.208-.438-.337-.519-.965-.182-1.402 2.815-3.655 4.908-5.962 7.331-8.632l.199-.22c.371-.41 1.003-.439 1.412-.068s.44 1.003.069 1.412l-.199.22c-2.394 2.639-4.462 4.917-7.228 8.509-.197.255-.493.389-.793.389z" fill="#670a39"/><path d="m364.525 822.015c-.744 0-1.499 0-2.253-.01-13.25-.043-26.33-.508-38.866-1.382-.756-.047-1.52-.103-2.284-.159l-1.136-.082c-.002 0-.004 0-.006 0-2.66-.202-5.301-.427-7.917-.671h-.002c-.018-.002-.037.004-.055-.006-.019-.002-.039-.006-.058-.005-.019-.004-.037-.003-.056-.006-.018-.002-.037-.002-.056-.005-.019-.002-.036-.005-.056-.005-.021-.002-.038-.004-.059-.006-.005-.001-.009-.001-.013-.001-.015-.002-.029-.003-.043-.005-.002 0-.004 0-.006 0-15.848-1.497-30.702-3.744-42.51-6.453-13.554-3.108-20.373-6.091-20.268-8.862 0-.003 0-.005 0-.008 0-.006.001-.013.001-.019.001-.019.002-.037.003-.056.037-.566.145-1.521 2.482-2.295.368-.126.789-.245 1.27-.355-15.283-2.609-30.365-9.381-30.722-16.303-.25-4.85 6.334-8.08 19.567-9.601 5.876-.675 23.61-1.154 38.8-.835-5.273-5.709-9.865-12.236-13.67-19.436-5.354-10.105-7.858-19.88-7.241-28.264.566-7.688 3.773-13.955 9.031-17.648 5.152-3.618 11.951-4.531 19.146-2.573 7.801 2.124 15.788 7.5 23.099 15.546 8.743 9.648 18.638 21.328 26.382 35.314 6.46-19.923 19.85-42.452 35.35-59.35 17.506-19.085 34.779-28.068 47.391-24.637 2.223.614 3.924 1.901 5.059 3.827 4.105 6.925 1.581 20.339-7.504 39.868-6.518 14.011-14.957 27.893-20.12 35.723 14.689-6.447 32.075-10.002 45.227-9.141 4.332.287 5.962.867 6.229 2.215.371 1.875-2.124 3.201-10.068 7.111-9.322 4.589-23.173 11.406-32.168 21.211 2.686.123 5.31.278 7.825.464 29.771 2.169 59.156 9.057 62.883 14.738.558.84.639 1.741.225 2.533-.736 1.408-3.239 3.276-15.895 3.844 1.31.491 2.338 1.046 3.097 1.668l-.001.001c.016.013.031.026.046.04 1.389 1.155 1.864 2.607 1.337 4.093-3.248 9.154-45.617 19.611-101.22 19.979h-.197zm-44.394-3.627 1.136.082c.757.055 1.513.11 2.27.157 12.501.872 25.536 1.335 38.752 1.378.755.01 1.501.01 2.237.01h.19c61.02-.404 97.109-12.355 99.342-18.647.164-.464.228-1.099-.747-1.9-.017-.015-.033-.028-.049-.044-1.127-.906-3.807-2.16-10.172-3.038-.521-.071-.897-.534-.861-1.059s.472-.932.998-.932c3.796 0 4.347-.037 4.398-.042.057-.004.116-.005.174.001 15.675-.349 17.567-2.468 17.787-2.89.033-.063.094-.181-.122-.505-2.635-4.018-27.845-11.404-61.36-13.847-3.142-.231-6.455-.416-9.847-.549-.381-.015-.72-.245-.875-.594s-.098-.755.147-1.047c9.176-10.966 24.223-18.373 34.18-23.273 3.889-1.914 7.899-3.889 8.827-4.887-.424-.178-1.51-.469-4.236-.649-13.816-.903-32.454 3.195-47.479 10.442-.408.198-.899.095-1.194-.25-.295-.344-.322-.844-.064-1.218 4.674-6.784 14.556-22.506 21.948-38.396 8.666-18.628 11.292-31.771 7.595-38.007-.876-1.486-2.14-2.439-3.866-2.916-11.86-3.22-28.405 5.546-45.388 24.06-15.901 17.336-29.55 40.649-35.618 60.845-.117.389-.457.668-.86.707-.405.037-.792-.169-.981-.527-7.791-14.723-18.135-26.964-27.227-36.996-11.181-12.309-27.767-21.003-39.614-12.681-12.149 8.534-9.343 27.917-1.172 43.341 4.111 7.778 9.158 14.752 15.001 20.729.285.291.364.727.201 1.1-.163.374-.535.604-.944.6-15.592-.426-34.804.062-40.929.764-11.488 1.32-17.975 4.059-17.798 7.512.324 6.298 20.768 15.291 40.457 15.525 2.86.034 6.237.085 10.247.284.552.027.976.497.949 1.049-.027.551-.505.959-1.048.949-3.995-.199-7.316-.282-10.077-.284-.021.001-.042.002-.064.002-12.485 0-13.47 1.662-13.507 1.734.511 2.576 24.674 10.514 69.263 13.907z" fill="#670a39"/><path d="m229.98 134.244c-10.163 0-21.837-1.401-34.069-12.253-3.539-3.14-6.301-7.232-9.225-11.566-5.166-7.655-11.021-16.332-22.681-21.183-5.624-2.339-8.981-6.004-9.453-10.318-.424-3.872 1.633-7.906 5.367-10.528 8.361-5.87 22.111-8.296 35.63 2.503 6.99 5.583 11.551 5.243 17.326 4.813 3.788-.281 8.082-.601 13.601.854 6.122 1.614 14.111 5.199 18.171 10.421.339.437.26 1.064-.176 1.403-.436.34-1.064.26-1.403-.175-3.755-4.829-11.296-8.185-17.102-9.716-5.195-1.368-9.134-1.077-12.943-.792-5.718.425-11.119.828-18.723-5.246-12.655-10.108-25.464-7.883-33.232-2.429-3.138 2.203-4.873 5.527-4.528 8.674.389 3.558 3.313 6.644 8.233 8.69 12.213 5.08 18.247 14.021 23.57 21.91 2.852 4.226 5.545 8.217 8.895 11.188 12.55 11.134 24.554 11.898 34.819 11.731 6.285-.099 12.94-1.679 19.246-4.567 6.113-2.808 13.066-10.575 13.638-18.225.041-.551.522-.97 1.072-.923.551.041.964.521.923 1.071-.626 8.377-8.17 16.849-14.799 19.895-6.557 3.003-13.489 4.646-20.049 4.749-.695.012-1.398.019-2.108.019z" fill="#670a39"/><path d="m225.979 143.244c-10.163 0-21.837-1.401-34.069-12.253-.413-.366-.451-.999-.084-1.412s.999-.451 1.412-.084c12.55 11.134 24.554 11.895 34.819 11.731.547-.034 1.007.433 1.016.984.009.552-.432 1.007-.984 1.016-.696.011-1.399.018-2.11.018z" fill="#670a39"/></svg>