<svg height="721.658" viewBox="0 0 792.325 721.658" width="792.325" xmlns="http://www.w3.org/2000/svg"><path d="m790.631 421.478c-5.414 19.546-38.25 39.22-57.639 48.409-32.541 15.81-75.635 28.069-91.856 5.963-3.09-4.217-5.208-9.68-6.091-16.613-1.755-13.731 1.1-23.842 7.768-32.512.019.009.009 0 .019-.01 6.267-8.16 16.555-15.594 28.893-21.733a162.016 162.016 0 0 1 20.811-8.5h.01c23.048-7.64 48.822-10.925 68.319-7.277 14.682 2.747 25.813 9.425 29.55 21.116.585.791 1.599 6.185.216 11.157z" fill="#9c819c"/><path d="m790.631 421.478c-3.315 11.965-16.908 23.979-31.4 33.61a.01.01 0 0 0 -.01.01c-10.239 6.6-18.281-9.749-9.16-15.516l-40.622-47.8c36.071-8.189 73.467-4.973 80.98 18.536.581.794 1.595 6.188.212 11.16z" fill="#d5d6e4"/><path d="m752.117 438.19c-22.754 15.524-64.249 36.993-96.221 39.21a19.654 19.654 0 0 1 -20.851-17.183c-1.755-13.73 1.1-23.842 7.768-32.511.618.3 4.913-7.994 21.184-17.614a130.434 130.434 0 0 1 15.231-7.621c3.991-1.7 8.414-3.384 13.308-5.012h.01c21.184-7.022 44.673-10.366 63.474-8.032a22.613 22.613 0 0 1 11.681 4.825c15.437 12.789 1.206 32.482-15.584 43.938z" fill="#b9acc0"/><path d="m679.228 401.49c-5.953 8.5-9.906 16.28-11.573 21.606-1.295-5.022-2.511-9.67-3.658-13.985a130.591 130.591 0 0 1 15.231-7.621z" fill="#670a39"/><path d="m667.655 424.1h-.026a1 1 0 0 1 -.942-.75c-1.294-5.019-2.51-9.665-3.656-13.978a1 1 0 0 1 .457-1.118 132.21 132.21 0 0 1 15.348-7.68 1 1 0 0 1 1.211 1.494c-5.472 7.815-9.64 15.59-11.438 21.331a1 1 0 0 1 -.954.701zm-2.5-14.507q1.268 4.781 2.652 10.116a92.638 92.638 0 0 1 8.631-15.9 126.41 126.41 0 0 0 -11.279 5.78z" fill="#670a39"/><path d="m667.6 425.048a136.741 136.741 0 0 0 -30.9 13.083c7.12-40.1-10.573-77.43-42.045-88.758-15.535-5.6-32.639-3.952-49.459 4.757-20.693 10.71-40.475 31.973-57.2 61.5a14.711 14.711 0 0 1 -25.6-14.506c19.821-34.993 43.133-59.6 69.27-73.134 23.93-12.387 49.841-14.623 72.948-6.306q3.823 1.383 7.473 3.089a86.7 86.7 0 0 1 15.035 9c17.261 12.827 29.8 31.844 36.052 53.931.686 2.4 1.295 4.854 1.824 7.326a122.98 122.98 0 0 1 2.602 30.018z" fill="#b9acc0"/><path d="m654.425 407.463c-5.218-2.511-5.649-8.238-6.924-13.211-5.993-23.361-13.731-35.758-40.181-51.048-4.786-2.775-10.288-4.952-12.642-10.385-2.138-4.9 1.216-9.916 11.013-9.131 1.427.114 2.655.277 3.722.469a16.526 16.526 0 0 1 4.424 1.464c26.479 13.14 44.066 38.686 50.75 67.575a16.189 16.189 0 0 1 .348 5.65c-.885 7.076-6.057 10.767-10.51 8.617z" fill="#d5d6e4"/><path d="m537.769 358.447c-17.987 11.632-35.062 31.208-49.773 57.188a14.711 14.711 0 0 1 -25.6-14.506c19.419-34.286 42.192-58.6 67.691-72.29-4.931 9.054-1.453 25.861 7.682 29.608z" fill="#670a39"/><path d="m475.166 424.086a15.7 15.7 0 0 1 -13.637-23.45c19.506-34.441 42.414-58.893 68.088-72.678a1 1 0 0 1 1.351 1.359c-2.612 4.793-2.833 12.332-.55 18.758 1.683 4.738 4.428 8.093 7.73 9.447a1 1 0 0 1 .164 1.765c-17.815 11.521-34.913 31.176-49.446 56.84a15.74 15.74 0 0 1 -13.7 7.959zm52.86-92.963c-24.312 13.832-46.087 37.535-64.757 70.5a13.711 13.711 0 0 0 23.858 13.519c14.3-25.251 31.093-44.773 48.654-56.58-3.1-1.877-5.641-5.295-7.248-9.816a28.367 28.367 0 0 1 -.507-17.623z" fill="#670a39"/><path d="m670.128 488.81c-6.986 0-13.369-1.078-18.774-3.553-9.872-4.52-15.693-13.236-17.3-25.9-.9-7.075.136-14.131 1.229-21.6 1.9-13.029 4.065-27.8-3.157-47.549-9.107-24.921-28.276-40.933-51.277-42.834-32.214-2.662-65.736 22.4-91.986 68.757a15.711 15.711 0 1 1 -27.337-15.491c19.506-34.441 42.414-58.894 68.088-72.679 29.876-16.6 62.938-16.554 90.7.128 26.574 15.97 43.646 44.318 47.525 77.793 29.24-15.609 76.951-25.51 104.568-14.51 9.846 3.921 16.214 10.157 18.93 18.535.8 1.451 1.645 6.871.262 11.845-3.654 13.189-19.278 25.84-31.763 34.141-.02.015-.04.03-.061.044-21.916 14.531-60.854 32.871-89.647 32.873zm-93.949-143.634q2.423 0 4.834.2c23.8 1.966 43.608 18.467 52.99 44.14 7.4 20.229 5.2 35.262 3.257 48.525-1.072 7.332-2.085 14.257-1.223 21.061 1.515 11.936 6.949 20.124 16.15 24.338 26.926 12.329 79.552-11.323 106.435-29.146a.615.615 0 0 1 .052-.037c12.21-8.112 27.5-20.43 30.993-33.044 1.322-4.755.332-9.661-.067-10.315a1.684 1.684 0 0 1 -.138-.275c-2.5-7.837-8.493-13.69-17.8-17.4-27.307-10.877-74.827-.818-103.6 14.8a129.633 129.633 0 0 1 .591 15.092 1 1 0 0 1 -2-.038 127.216 127.216 0 0 0 -.62-15.234 1 1 0 0 1 -.054-.521c-3.533-33.387-20.349-61.688-46.7-77.525-27.128-16.3-59.461-16.334-88.707-.086-25.349 13.61-47.99 37.8-67.307 71.909a13.711 13.711 0 0 0 23.858 13.519c25.35-44.769 57.556-69.963 89.056-69.963z" fill="#670a39"/><path d="m628.133 321.3a1 1 0 0 1 -.55-.166 88.907 88.907 0 0 0 -59.632-14.412 1 1 0 0 1 -.223-1.988 90.889 90.889 0 0 1 60.958 14.731 1 1 0 0 1 -.553 1.835z" fill="#670a39"/><path d="m633.387 165.218c-2.923 12.791-9.463 24.918-18.948 35.605l-.072.073a113.288 113.288 0 0 1 -33.573 25.404c-16.6 8.417-35.834 13.89-57.041 16.326a230.925 230.925 0 0 1 -26.048 1.44 271.719 271.719 0 0 1 -30.246-1.731 14.514 14.514 0 0 1 3.234-28.847 223.316 223.316 0 0 0 47.017.571c50.407-5.038 81.368-28.9 87.38-55.3 5.234-22.928-10.117-43.689-40.072-54.189a14.51 14.51 0 1 1 9.6-27.386c22.047 7.722 39.171 20.223 49.505 36.134a67.075 67.075 0 0 1 9.264 51.9z" fill="#d3b6b8"/><path d="m523.753 242.627a230.925 230.925 0 0 1 -26.048 1.44 271.719 271.719 0 0 1 -30.246-1.731 14.514 14.514 0 0 1 3.234-28.847 223.316 223.316 0 0 0 47.017.571l.052.331c-7.235 7.992-4.613 25.717 5.991 28.236z" fill="#9c819c"/><path d="m633.392 165.221c-2.923 12.79-9.464 24.918-18.948 35.6l-.073.073c-13 13.755-29.427 6.914-11.837-13.578 20.316-23.665 16.336-50.563 3.752-65.2-12.138-14.108 5.2-23.623 17.839-8.8a67.083 67.083 0 0 1 9.267 51.905z" fill="#fff8ed"/><path d="m497.713 245.074a274.023 274.023 0 0 1 -30.363-1.744 15.512 15.512 0 0 1 3.456-30.831c77.461 8.689 125.7-20.566 133.319-53.956 5.109-22.394-10-42.71-39.429-53.021a15.512 15.512 0 0 1 10.258-29.279c22.258 7.8 39.553 20.432 50.014 36.532a68.094 68.094 0 0 1 9.4 52.67c-5.7 25-25.066 47.5-53.122 61.749-23.364 11.864-51.469 17.88-83.533 17.88zm-28.637-30.674a13.512 13.512 0 0 0 -1.5 26.939 271.96 271.96 0 0 0 30.14 1.732c31.746 0 59.547-5.943 82.629-17.664 27.525-13.974 46.506-35.993 52.078-60.41a66.111 66.111 0 0 0 -9.129-51.135c-10.218-15.726-27.161-28.083-49-35.735a13.512 13.512 0 0 0 -8.935 25.5c30.47 10.675 46.072 31.886 40.717 55.354-6.879 30.149-45.712 57.051-108.523 57.054a241.768 241.768 0 0 1 -26.968-1.555 13.7 13.7 0 0 0 -1.509-.08z" fill="#670a39"/><path d="m495.448 92.872c10.869 20.081 31.208 33.015 58.972 28.366 9.1-1.522 17.077-5.373 23.256-12.9 19.748-3.38 35.082-24.445 37.2-45.158 3.021-29.618-24.46-57.429-46.468-51.445v-.011a47.282 47.282 0 0 0 -9.565 2.707c-11.718-2.838-24.934 4.2-32.182 13.906v.009a32.479 32.479 0 0 0 -17.86 11.717c-.179.239-.362.5-.538.75a49.484 49.484 0 0 0 -7.31 17.539c-5.132-1.2-9.757.324-12.115 3.8-7.345 10.896 3.19 24.409 6.61 30.72z" fill="#d3b6b8"/><path d="m568.41 11.728a47.183 47.183 0 0 0 -9.575 2.709c-19.415 7.713-26.628 21.521-22.107 42.005 3.866 17.528 15.054 25.073 31.754 28.207 21.518 4.036 26.681-22.849 5.777-28.788-3.51-.994-7.391-6.936-5.342-11.04z" fill="#d3b6b8"/><path d="m569.322 11.5c12.668-2.819 34.375 6.037 43.222 32.384a39.939 39.939 0 0 1 2.578 14.633 55.152 55.152 0 0 1 -6.958 25.785c-6.663 12.125-25.417 4.506-21.217-8.946l.5-2.009c-.021-.018-.042-.032-.063-.049-12.116 10.119-36.014-4.919-40.357-20.891-4.365-16.074 5.373-33.117 22.295-40.907z" fill="#fff8ed"/><path d="m546.357 107.624h.01c3.293-2.884 4.951-4.768 6.4-8.9l-11.528-3.619-10.139-5.954-8.511-15.3-7.153-20.425c.469-4.945-1.156 12.216 2.141-22.613-10.9 4.957-19.4 15.744-21.331 34.225-2.134 34.247 33.219 55.643 50.111 42.586z" fill="#d3b6b8"/><path d="m511.655 90.922a45.4 45.4 0 0 0 27.945 15.978 12.893 12.893 0 0 0 14.109-8.324l.042-.119-11.528-3.619-10.142-5.956-8.512-15.3-7.152-20.425 2.141-22.613a32.476 32.476 0 0 0 -10.394 7.442c-.036.062-.085.118-.121.181-10.87 14.833-9.832 36.793 3.612 52.755z" fill="#fff8ed"/><path d="m534.817 112.677a28.28 28.28 0 0 1 -5.8-.627c-17.682-3.7-35.621-22.758-33.772-47.09 2.662-25.154 18.966-38.046 33.7-37.8a1 1 0 0 1 .983 1.017.984.984 0 0 1 -1.017.983c-13.8-.237-29.146 12.055-31.678 35.984-1.765 23.222 15.334 41.423 32.19 44.951 10.678 2.235 19.049-2.138 22.4-11.7a13.042 13.042 0 0 0 .685-5.689 1 1 0 0 1 1.986-.239 15.079 15.079 0 0 1 -.78 6.58c-3.078 8.789-9.946 13.63-18.897 13.63z" fill="#670a39"/><path d="m554.233 99.872c12.547.44 22-8.161 21.563-16.671l-23.827-12.641-10.959-34.349 16.262-21.137c-5.913-2.753-15.786-.875-21.537 1.97-17.686 8.737-25.538 20.2-22.418 44.948 2.423 19.191 17.721 37.108 40.916 37.88z" fill="#d3b6b8"/><path d="m522.63 63.694c5.392 19.83 23.37 32.69 42.17 31.406a11.746 11.746 0 0 0 10.847-9.631c.043-.264.077-.528.1-.793a19.484 19.484 0 0 1 -7.268-.025c-16.7-3.134-27.888-10.679-31.754-28.207-4.4-19.924 2.306-33.531 20.536-41.356l.007-.012c-3.188-1.484-7.418-1.625-11.49-1.027-18.572 7.527-28.822 28.777-23.148 49.645z" fill="#fff8ed"/><g fill="#670a39"><path d="m555.206 100.89c-.334 0-.669-.006-1.008-.018-24.38-.816-39.52-20.113-41.873-38.755-2.957-23.456 3.483-36.345 22.967-45.97 6.264-3.1 16.245-4.846 22.4-1.98a1 1 0 1 1 -.844 1.813c-5.39-2.508-14.743-.973-20.672 1.96-18.807 9.291-24.734 21.2-21.869 43.927 2.25 17.801 16.693 36.233 39.959 37.006 11.521.4 19.9-7.061 20.5-14.285a1 1 0 1 1 1.993.166c-.659 7.897-9.045 16.136-21.553 16.136z"/><path d="m543.413 123.177c-20.94 0-38.38-10.5-48.846-29.833-.484-.894-1.111-1.93-1.837-3.129-4.249-7.023-11.36-18.776-4.711-28.621a11.165 11.165 0 0 1 9.388-4.642 1 1 0 1 1 .02 2 9.2 9.2 0 0 0 -7.751 3.761c-5.932 8.785.5 19.426 4.765 26.466.739 1.222 1.377 2.276 1.884 3.213 11.847 21.881 32.965 32.035 57.932 27.86 9.628-1.61 17.036-5.715 22.647-12.55a1 1 0 0 1 .6-.351 35.781 35.781 0 0 0 13.839-5.664 1 1 0 0 1 1.111 1.663 37.851 37.851 0 0 1 -14.245 5.907c-5.9 7.054-13.634 11.3-23.626 12.967a67.665 67.665 0 0 1 -11.17.953z"/><path d="m603.25 92.809a1 1 0 0 1 -.789-1.614c10.916-14.051 14.6-32.918 9.154-46.946-9.14-27.214-28.221-34.127-43.032-31.536a59.489 59.489 0 0 0 -9.39 2.657c-18.869 7.5-25.9 20.863-21.488 40.856 3.442 15.605 12.991 24.067 30.962 27.44 10.135 1.9 16.107-3.35 17.53-9.4 1.485-6.309-1.7-14.459-12.212-17.445-2.233-.633-4.557-2.922-5.783-5.7a7.881 7.881 0 0 1 -.179-6.752 1 1 0 1 1 1.789.894 6.121 6.121 0 0 0 .22 5.05c.983 2.225 2.833 4.109 4.5 4.58 11.249 3.2 15.362 12.394 13.613 19.828-1.645 6.979-8.417 13.055-19.845 10.911-18.87-3.542-28.907-12.478-32.546-28.975-4.66-21.111 2.77-35.226 22.714-43.15a61.9 61.9 0 0 1 9.772-2.764c14.917-2.609 35.719 4.422 45.258 32.826 5.67 14.617 1.876 34.267-9.455 48.853a1 1 0 0 1 -.793.387z"/><path d="m622.861 36.7a1 1 0 0 1 -.965-.742c-6.1-22.8-21.222-34.842-42.564-33.9a1 1 0 1 1 -.089-2c22.382-.988 38.212 11.578 44.585 35.382a1 1 0 0 1 -.967 1.259z"/><path d="m473.619 135.965-7.159-30.452a24.533 24.533 0 0 1 7.94 10.387c2.319 5.972 1.956 12.749-.781 20.065z"/><path d="m473.62 136.965c-.021 0-.043 0-.064 0a1 1 0 0 1 -.91-.769l-7.16-30.452a1 1 0 0 1 1.593-1.014 25.574 25.574 0 0 1 8.257 10.809c2.361 6.092 2.1 13.083-.78 20.779a1 1 0 0 1 -.936.647zm-5.472-28.64 5.628 23.937c1.631-5.895 1.531-11.265-.305-16a22.569 22.569 0 0 0 -5.323-7.937z"/><path d="m143.393 264.08c-6.944-3.56-11.789-8.316-14.1-14.289a24.554 24.554 0 0 1 -1.148-13.024z"/><path d="m143.392 265.08a1 1 0 0 1 -.456-.11c-7.318-3.752-12.223-8.738-14.579-14.818a25.615 25.615 0 0 1 -1.2-13.546 1 1 0 0 1 1.86-.327l15.251 27.314a1 1 0 0 1 -.874 1.487zm-14.592-25.09a22.53 22.53 0 0 0 1.425 9.438c1.831 4.728 5.375 8.759 10.554 12.018z"/></g><path d="m422 492.545q-9.416 3.648-18.585 6.649c-7.719 2.531-15.28 4.708-22.626 6.562q-6.237 1.574-12.259 2.824c-47.7 9.964-84.531 5.326-94.2-9.984l-33.208-59.482-18.546-33.208-79.184-141.826-15.251-27.313-22.057-39.515 102.459-39.759 41.221-16 8.051-3.119 95.8-37.17 102.478-39.755 10.366 44.064 1.216 5.179 5.944 25.273 33.62 142.935 11.984 50.95 15.9 67.563c4.912 25.187-41.105 67.187-113.123 95.132z" fill="#b9acc0"/><path d="m517.9 423.089c-19.4 27.187-56.843 48.439-88.1 60.078-26.462 9.855-53.4-20.888-70.171-40.478-6.238-7.288-1.239-10.788 12.41-15.556 43.943-15.353 101.658-43.1 132.972-75.833 6.211-6.492 11.856-12.3 13.781-3.956 1.829 7.924 5.636 24.531 9.3 40.454s-3.292 25.616-10.192 35.291z" fill="#d5d6e4"/><path d="m322.963 514.871q-5.072 0-9.916-.3c-11.638-.722-32.253-3.689-39.566-15.446l-2.774-4.965c-19.5-34.932-136.988-245.344-165.5-296.419a1 1 0 0 1 .512-1.42l85.568-33.2a.764.764 0 0 1 .092-.042l264.352-102.563a1 1 0 0 1 1.335.7c20.13 85.588 60.568 257.516 79.028 335.963 1.906 9.763-2.733 21.078-13.779 33.667-18.124 20.657-52.358 42.8-91.578 59.239-38.483 16.132-76.298 24.786-107.774 24.786zm-215.445-317.1c29.451 52.764 145.557 260.706 164.937 295.415l2.749 4.925c6.815 10.954 26.715 13.767 37.968 14.465 3.158.2 6.382.293 9.651.293 70 0 163.437-43.955 197.989-83.335 10.467-11.93 15.075-22.97 13.328-31.928-18.373-78.073-58.54-248.85-78.758-334.806l-204.832 79.467-.283.109c-.035.015-.069.028-.1.039z" fill="#670a39"/><path d="m379.4 414.041a89.457 89.457 0 0 0 10.789 1.624c28.612 2.564 62.948-8.509 75.631-38.226z" fill="#b9acc0"/><path d="m434.2 136.946c-30.5 25.656-74.459 50.313-123.761 69.447s-98.4 30.57-138.216 32.2c-37.847 1.549-58.914-5.894-70.516-15.614a37.559 37.559 0 0 1 -11.22-15.368c-5.982-15.418-3.991-41.466 39.446-78 30.511-25.657 74.458-50.323 123.77-69.457s98.388-30.56 138.216-32.2c33.954-1.393 54.4 4.463 66.622 12.7a38.823 38.823 0 0 1 15.1 18.291c5.989 15.42 3.999 41.455-39.441 78.001z" fill="#f6e4d5"/><path d="m434.2 136.944c-97.734 82.21-316.432 140.936-343.712 70.663-15.9-40.963 46.131-86.652 84.08-109.275 2.921-1.425 48.119-30.677 120.9-52.568h.01c51.572-15.519 158.855-36.57 178.172 13.181 5.977 15.418 3.986 41.455-39.45 77.999z" fill="#fff8ed"/><path d="m249.17 207-82.013-51.472 21.045-51.96c-2.209-5.285-11.265-5.875-16.708-2.565a332.316 332.316 0 0 0 -43.226 30.118l-.068-.043q-3.247 2.783-6.172 5.48c-17.132 15.509-27.18 29.946-31.386 42.777-3.983 11.7-2.925 21.125-.152 28.271a37.559 37.559 0 0 0 11.22 15.368c11.6 9.719 32.669 17.163 70.516 15.614 24.914-1.02 53.467-5.889 83.432-14.074-9.824 2.386-19.825-14.183-6.488-17.514z" fill="#d3b6b8"/><path d="m256.446 224.3-.788.217c.05-.012.1-.017.149-.03z" fill="#d3b6b8"/><path d="m256.446 224.3q8.685-2.387 17.5-5.128z" fill="#d3b6b8"/><path d="m452 90.272a98.121 98.121 0 0 1 -11.632 15.585 197.425 197.425 0 0 1 -25.94 23.655h-.01c-1.589 1.236-3.227 2.481-4.894 3.717-26.774 19.811-62.895 39.465-104.263 55.52-45.938 17.82-90.082 28-125.143 30.217-22.155 1.412-40.681-.363-53.735-5.384a46.694 46.694 0 0 1 -8.15-4c-5.375-3.364-9.19-7.6-11.171-12.71-5.58-14.388 4.188-33.375 24.989-53.323 11.8-11.308 27.147-22.92 45.272-34.189 23.2-14.437 50.94-28.285 81.549-40.161 12.4-4.806 24.656-9.063 36.65-12.741q3.869-1.191 7.689-2.3 6-1.751 11.906-3.3 11.946-3.149 23.352-5.5 2.9-.6 5.767-1.138c58.9-11.269 103.988-5.953 112.834 16.859 3.259 8.402 1.288 18.376-5.07 29.193z" fill="#fff8ed"/><path d="m414.431 129.512h-.01c-30.747 23.912-70.888 44.226-107.284 58.5l12.5-138.325c9.507-2.405 18.831-4.408 24.6-5.472 115.41-22.076 152.063 21.843 70.194 85.297z" fill="#b9acc0"/><path d="m329.224 117.282-162.392 65.018-31.832-26.984c11.8-11.308 17.663-31.238 35.787-42.507 12.223-7.6 19.394-11.754 48.645-26.5 12.942-6.523 27.9.277 42.388-5.345 12.4-4.805 24.656-9.062 36.65-12.74q3.87-1.191 7.689-2.3 6-1.752 11.907-3.3z" fill="#b9acc0"/><path d="m298.733 44.707a511.89 511.89 0 0 0 -60.225 21.927c-10.462 4.56-23.635 10.6-32.509 15.051-17.933 9.762-4.235 12.862 2.8 10.292-10.524 5.256-4.942 15.786 22.076 2.5 21.054-9.607 35.76-15.527 52.63-21.235 2.556-.865 5.085-1.726 7.61-2.554z" fill="#fff8ed"/><path d="m323.806 38.1c-9.2 18.507-20.718 32.972-44.517 39.1-.512-13.035 10.871-29.895 21.548-33.025 9.582-2.882 13.681-3.854 22.969-6.075z" fill="#b9acc0"/><path d="m240.8 123.74c-37.042 20.439-55.358 36.528-76.365 62.793-17.693 22.116-45.938-13.083-31.767-43.575 11.715-11.122 14.132-14.985 31.932-26.058 6.856-4.256 11.654-7.461 19.232-11.623 19.821-2.977 43.297 5.364 56.968 18.463z" fill="#9c819c"/><path d="m456.6 80.55a99.428 99.428 0 0 1 -10.935 18.989c-6.131 8.363-25.172 22.922-50.246 29.433 0 0-96.734-47.654-88.28-84.628 15.441-4.485 24.7-6.849 35.258-8.8 6.23 16.094 7.979 31.36 31.659 37.772 31.469 8.523 80.434-10.416 82.544 7.234z" fill="#9c819c"/><path d="m166.1 220.429c-16.23 0-29.911-2-40.076-5.914a47.842 47.842 0 0 1 -8.323-4.088c-5.655-3.54-9.549-7.979-11.571-13.2-5.567-14.348 3.613-33.88 25.851-55 11.842-11.247 26.919-22.593 44.813-33.724 7.043-4.373 14.359-8.62 21.746-12.623 7.408-4.024 15.063-7.919 22.751-11.577a1 1 0 0 1 .86 1.806c-7.657 3.642-15.28 7.521-22.657 11.529-7.353 3.985-14.635 8.212-21.644 12.563-17.779 11.06-32.748 22.323-44.492 33.476-21.61 20.523-30.618 39.283-25.364 52.825 1.863 4.8 5.487 8.918 10.769 12.225a45.889 45.889 0 0 0 7.977 3.915c12.721 4.893 31.155 6.733 53.314 5.32 36.3-2.295 80.639-13 124.845-30.151 39.559-15.353 76.5-35.025 104.03-55.392 12.407-9.194 22.734-18.358 30.695-27.236l.022-.024c6.658-7.432 11.55-14.583 14.54-21.255 3.789-8.473 4.446-16.035 1.952-22.473-3.888-10.025-15.494-16.965-33.563-20.069a1 1 0 0 1 .339-1.972c18.8 3.23 30.933 10.6 35.089 21.318 2.694 6.955 2.024 15.034-1.991 24.014-3.077 6.865-8.087 14.2-14.889 21.786l-.025.027c-8.049 8.973-18.471 18.222-30.979 27.492-28.066 20.767-64.2 40.01-104.5 55.649-44.393 17.22-88.942 27.975-125.442 30.282q-7.307.473-14.077.471z" fill="#670a39"/><path d="m235.227 80.041a1 1 0 0 1 -.4-1.916c2.848-1.249 5.751-2.489 8.628-3.686a1 1 0 0 1 .768 1.847c-2.865 1.191-5.756 2.427-8.593 3.671a1 1 0 0 1 -.403.084z" fill="#670a39"/><path d="m455.1 84.32c-3.06 6.825-8.042 14.073-14.721 21.527a.01.01 0 0 0 -.01.01 174.387 174.387 0 0 1 -16.084 15.6v.01c-57.511 49.547-166.295 92.573-244.166 97.5l-42.143-31.3c45.332-46.58 109.948-62.163 136.177-92.533 24.8-29 24.473-70.654 48.929-72.722 10.1-.854 18.006 3.325 22.253 22.94 3.217 14.838 6.257 24.43 21.665 31.2 8.287 3.639 15.907 3.5 25.617 2.707 18.783-1.971 46.793-3.923 62.483 5.061z" fill="#af4357"/><path d="m180.121 219.966a1 1 0 0 1 -.6-.2l-42.143-31.3a1 1 0 0 1 -.121-1.5c24.588-25.265 54.868-41.49 81.583-55.805 22.761-12.2 42.418-22.728 54.174-36.246l.38-.439c10.392-12.139 16.351-26.627 21.606-39.409q1.134-2.76 2.237-5.4l.112-.269c6.165-14.65 12.343-26.854 25.651-27.98 12.509-1.057 19.485 6.038 23.314 23.725 3.165 14.6 6.165 23.938 21.09 30.494 8.327 3.655 15.986 3.374 25.133 2.625 21.233-2.229 47.613-3.655 63.062 5.19a1 1 0 0 1 .416 1.277c-3.078 6.865-8.087 14.194-14.889 21.785l-.022.024a175.632 175.632 0 0 1 -16.08 15.608 1.088 1.088 0 0 1 -.084.082c-27.8 23.948-68.543 47.264-114.731 65.653-45.946 18.293-92.123 29.687-130.025 32.083zm-40.621-32.415 40.928 30.394c77.708-5.03 186.654-48.556 243.127-97.16a1.11 1.11 0 0 1 .085-.083 173.57 173.57 0 0 0 15.992-15.513l.02-.022c6.382-7.123 11.141-13.988 14.159-20.421-15.272-8.156-42.1-6.485-61.083-4.493-9.131.748-17.382 1.053-26.123-2.785-15.8-6.938-18.941-16.681-22.24-31.9-4.475-20.666-12.831-22.861-21.192-22.155-12.198 1.03-18.073 12.72-23.973 26.743l-.111.266c-.744 1.771-1.484 3.571-2.239 5.405-5.315 12.922-11.339 27.567-21.938 39.96l-.387.446c-12 13.8-31.805 24.409-54.739 36.7-26.294 14.089-56.062 30.04-80.286 54.618z" fill="#670a39"/><path d="m298.163 50.052c-4.1 10.1-3.132 18.883-6.845 26.5-3.75 7.692-9.906 10.229-17.546 19.026l.383-.441c11.994-14.025 18.104-31.037 24.008-45.085z" fill="#670a39"/><path d="m273.772 96.578a1 1 0 0 1 -.756-1.654l.38-.439c10.39-12.148 16.349-26.636 21.604-39.418q1.134-2.76 2.237-5.4a1 1 0 0 1 1.849.763 62.5 62.5 0 0 0 -3.5 13.932c-.743 4.464-1.446 8.68-3.371 12.63-2.323 4.765-5.564 7.651-9.315 10.992a86.821 86.821 0 0 0 -8.375 8.252 1 1 0 0 1 -.753.342zm19.963-33.26a151.343 151.343 0 0 1 -11.541 22.616c3.448-3.079 6.195-5.657 8.225-9.82 1.8-3.689 2.477-7.766 3.2-12.082z" fill="#670a39"/><path d="m455.1 84.32c-3.06 6.825-8.042 14.073-14.721 21.527a.01.01 0 0 0 -.01.01 174.387 174.387 0 0 1 -16.084 15.6c29.545-26.486 11.878-44.785-31.658-42.2 9.425-.775 20.831-2.187 36.748-1.383 9.3.463 19.205 2.709 25.725 6.446z" fill="#670a39"/><path d="m424.288 122.46a1 1 0 0 1 -.668-1.744c11.653-10.448 16.4-20.213 13.361-27.5-3.972-9.526-20.533-14.372-44.293-12.961a1 1 0 0 1 -.141-2q2.107-.174 4.357-.38a217.741 217.741 0 0 1 32.524-1.005c10.073.5 19.857 2.957 26.171 6.575a1 1 0 0 1 .416 1.277c-3.078 6.865-8.087 14.194-14.889 21.785l-.022.024a175.786 175.786 0 0 1 -16.165 15.681.994.994 0 0 1 -.651.248zm-11.314-43.691c13.616 1.747 22.859 6.5 25.853 13.679 1.506 3.612 1.885 8.833-1.957 15.728q1.423-1.5 2.757-2.987l.02-.022c6.381-7.122 11.141-13.988 14.159-20.421-6.067-3.226-15.124-5.407-24.478-5.871-6.034-.305-11.457-.286-16.354-.106z" fill="#670a39"/><path d="m409.527 133.229c-81.4 60.228-225.6 102.488-283.141 80.353-24.181-13.361-35.631-11.624-46.291-44.673-9.308-28.873-5.551-32.944-35.288-43.781-32.889-11.985-10.115-47.449 37.455-44.388 42.506 2.775 46.36 29.226 87.61 29.677 81.933.911 53.353 47.424 137.608 14.741z" fill="#af4357"/><path d="m256.707 204.941c-52.558 14.82-101.968 19.547-130.321 8.641-22.3-12.32-33.69-11.8-43.683-37.318 9.818 20.429 28.452 8.788 47.91 14.407 20.841 6.029 19.634 23.329 45.036 18.829 32.698-5.794 38.71 5.278 81.058-4.559z" fill="#670a39"/><path d="m166.148 220.54c-16.025 0-29.637-1.992-40.121-6.025a1.093 1.093 0 0 1 -.125-.058c-4.936-2.728-9.39-4.848-13.319-6.719-13.789-6.567-22.9-10.9-30.811-31.109a1 1 0 0 1 1.833-.8c6.085 12.671 15.364 12.448 27.111 12.171 6.482-.153 13.185-.31 20.174 1.709 8.646 2.5 13.654 6.949 18.072 10.872 6.364 5.651 11.859 10.531 26.512 7.934 14.637-2.595 23.813-1.851 33.528-1.064 11.836.959 24.075 1.951 47.479-3.486a1 1 0 0 1 .5 1.937c-34.391 9.698-65.602 14.638-90.833 14.638zm-39.339-7.867c22.946 8.8 61.232 7.653 107.111-2.916a136.73 136.73 0 0 1 -25.079-.31c-9.583-.777-18.634-1.51-33.018 1.04-15.605 2.765-21.717-2.662-28.189-8.409-4.468-3.967-9.088-8.07-17.3-10.446-6.694-1.933-13.241-1.78-19.572-1.631-8.492.2-16.636.39-22.989-5.126 6.61 11.98 14.282 15.634 25.669 21.057 3.94 1.876 8.402 4 13.367 6.741z" fill="#670a39"/><path d="m372.1 133.681c-56.06 6.894-47.253 36.738-84.148 51.7-40.25 16.329-48.684-9.925-105.646-14.966-44.3-3.9-35.726-27.453-55.324-45.369-25.272-23.112-50.81-7.446-75.192-13.146-23.557-5.5-4.442-29.629 20.988-31.256.343-.02.7-.04 1.05-.05q4.074-.132 8.434.148c42.506 2.775 46.36 29.226 87.61 29.677 42.329.471 55.157 13.113 69.29 20.713 49.361-22.655 120.568-45.188 172.768-43.566 28.51.868 14.955 39.32-39.83 46.115z" fill="#c36b62"/><path d="m247.576 134.808c-6.168-1.991-11.258-5.256-17.094-8.778 8.189-4.462 15.878-8.826 22.753-13.357-8.473 5.904-16.319 17.859-5.659 22.135z" fill="#670a39"/><path d="m247.577 135.808a1 1 0 0 1 -.308-.048c-5.71-1.843-10.565-4.788-15.705-7.906l-1.6-.967a1 1 0 0 1 .038-1.735c7.077-3.855 15.305-8.453 22.682-13.314a1 1 0 0 1 1.122 1.655c-5.437 3.789-10.913 10.473-10.351 15.4.253 2.216 1.764 3.894 4.493 4.988a1 1 0 0 1 -.372 1.928zm-15.091-9.733.115.069c3.346 2.03 6.4 3.883 9.6 5.419a7.142 7.142 0 0 1 -.729-2.444c-.371-3.247 1.31-6.981 3.934-10.377-4.394 2.616-8.819 5.088-12.92 7.333z" fill="#670a39"/><path d="m380.791 505.756q-6.237 1.574-12.259 2.824c-.765-4.256-1.805-8.954-3.256-14.593 5.237 3.923 10.709 8.091 15.515 11.769z" fill="#670a39"/><path d="m368.532 509.58a1 1 0 0 1 -.56-.171 1 1 0 0 1 -.424-.652c-.776-4.313-1.836-9.062-3.241-14.521a1 1 0 0 1 1.568-1.05c4.409 3.3 9.342 7.044 15.524 11.775a1 1 0 0 1 -.363 1.764c-4.14 1.044-8.278 2-12.3 2.834a.992.992 0 0 1 -.204.021zm-1.595-13.1c.98 3.973 1.769 7.569 2.393 10.907 3.024-.64 6.108-1.345 9.2-2.1-4.415-3.376-8.182-6.235-11.593-8.803z" fill="#670a39"/><path d="m508.856 338.433q-.03.015-.03.03c-36.1 50.685-140.12 93.535-208.849 100.624-22.2 2.3-58.686 2.45-72.458-15.25h-.01c-27.97-40.671-73.847-126.2-96.838-171.415a31.149 31.149 0 0 0 8.875 7.66c21.224 12.7 65.593 13.642 118.1 2.01 1.834-.4 3.687-.823 5.541-1.265a468.362 468.362 0 0 0 61.581-19.212c89.483-34.719 153.624-89.3 150.721-122.437 15.947 48.43 36.14 135.117 43.437 189.686 1.159 8.67-2.391 18.801-10.07 29.569z" fill="#d3b6b8"/><path d="m288.876 440.124c-29.894 1.53-52-4.021-61.415-16.114h-.009c-19.29-28.048-46.451-76.7-62.788-106.715v-.029c-23.606-42.927 38.7-47.213 65.377 5.276l34.1 67.1z" fill="#d3b6b8"/><path d="m518.6 317.447c-5.192 29.163-53.145 69.714-126.448 98.154-13.664 5.307-16.652 5.954-21.279 5.077a4.031 4.031 0 0 0 -1.874.1c-9.434 2.767-20 4.742-28.045-2.312-10.126-8.882-60.046-87.51-67.135-145.51-.858-7.054 23.306-17.081 33.332-20.7.821-2.8 1.3-4.5 1.3-4.5 94.225-32.682 170.15-92.038 166.97-128.417 20.863 63.332 45.923 182.999 43.179 198.108z" fill="#fff8ed"/><path d="m478.469 128.853v.01c-7.62 47.566-120.651 114.884-217.725 136.833h-.01c-54.843 12.466-104.057 9.984-125.584-4.217q-2.325-4.531-4.541-8.886c15.152 19.89 66.563 23.4 129.144 9.18h.01q7.091-1.6 14.348-3.521c12.152-3.2 24.382-7 36.494-11.308 78.538-27.892 151.947-76.733 163.529-116.346a30.7 30.7 0 0 0 1.295-11.249c1 3.021 2.011 6.199 3.04 9.504z" fill="#f6e4d5"/><path d="m506.738 341.373c5.649-10.592 8.15-21.41 7.228-32.335-4.305-50.833-24.234-128.738-39.828-178.438a30.7 30.7 0 0 0 1.3-11.25c15.947 48.43 36.14 135.118 43.437 189.687 1.25 9.406-3.045 20.528-12.137 32.336z" fill="#f6e4d5"/><path d="m508.768 338.637c-36.1 50.684-140.12 93.534-208.849 100.624-22.2 2.3-58.686 2.45-72.458-15.251h-.009c-27.971-40.671-73.847-126.2-96.839-171.414a31.149 31.149 0 0 0 8.875 7.66c21.687 42.088 64.361 121.233 90.906 159.831h.01c9.415 12.093 31.521 17.644 61.414 16.114 67.524-3.51 175.995-45.934 216.95-97.564z" fill="#f6e4d5"/><path d="m279.437 441.37c-25.646 0-44.172-5.807-52.7-16.656a1.037 1.037 0 0 1 -.117-.139c-7.179-10.439-16.011-24.545-26.252-41.927-4.167-7.053-8.6-14.706-13.17-22.747-7.435-13.066-15.314-27.241-23.419-42.13-10.173-18.747-20.382-38.054-29.522-55.835q-2.171-4.233-4.248-8.311l-.294-.577a1 1 0 0 1 1.686-1.061c14.731 19.337 66.222 22.878 128.128 8.811l.066-.013c4.62-1.045 9.416-2.223 14.258-3.5 11.932-3.139 24.183-6.935 36.414-11.283 39-13.852 76.876-32.908 106.636-53.656 30.886-21.533 50.869-43.561 56.269-62.028a29.816 29.816 0 0 0 1.258-10.883 1 1 0 0 1 1.945-.4c.916 2.764 1.883 5.789 3.046 9.52.008.025.014.051.02.076 16.1 51.969 33.848 131.138 40.413 180.272 1.267 9.492-2.975 20.9-12.267 33a.923.923 0 0 1 -.063.091c-19.373 25.189-57.675 50.913-105.085 70.574-1.515.632-3.032 1.245-4.549 1.857-.319.13-.6.241-.893.352-4.276 1.7-8.677 3.379-13.066 4.977l-1.644.59-.115.039c-4.173 1.5-8.618 3.015-13.183 4.492-3.776 1.217-7.612 2.4-11.4 3.51l-.39-.931.281.96c-3.776 1.107-7.613 2.169-11.406 3.156-1.257.332-2.508.645-3.759.957l-.336.089c-2.031.508-4.029.991-6.017 1.443-4.28.987-8.2 1.82-11.988 2.547a254.463 254.463 0 0 1 -35.052 4.518q-4.887.247-9.485.246zm-51.237-18.028c.015.017.029.034.043.052 9.092 11.677 30.6 17.263 60.574 15.729a252.528 252.528 0 0 0 34.775-4.485c3.764-.722 7.663-1.551 11.922-2.532q2.966-.675 5.955-1.428l.31-.083c1.291-.322 2.534-.633 3.786-.963 3.776-.984 7.594-2.04 11.351-3.141l.389.93-.281-.959c3.773-1.108 7.592-2.283 11.351-3.494 4.543-1.47 8.967-2.978 13.15-4.481l.1-.036 1.622-.583c4.365-1.589 8.747-3.258 13.021-4.959.292-.111.559-.216.817-.321 1.561-.631 3.071-1.241 4.582-1.87 47.048-19.513 85.021-44.974 104.207-69.869a.867.867 0 0 1 .06-.089c9-11.695 13.131-22.619 11.933-31.592-6.556-49.062-24.285-128.131-40.361-180.009-.007-.024-.014-.049-.02-.073-.427-1.372-.828-2.648-1.21-3.851a36.208 36.208 0 0 1 -1.19 5.644c-11.1 37.96-80.136 87.169-164.154 117.008-12.284 4.366-24.589 8.179-36.574 11.332-4.884 1.288-9.723 2.476-14.382 3.529l-.065.013c-58.221 13.221-105.937 11.2-125.433-4.772q.771 1.508 1.553 3.033c9.133 17.767 19.334 37.061 29.5 55.794 8.1 14.877 15.972 29.041 23.4 42.1 4.567 8.032 8.992 15.676 13.153 22.72 10.195 17.283 18.979 31.315 26.116 41.706z" fill="#670a39"/><path d="m270.554 422.977c-12.124 0-23.994-1.31-34.308-4.74a2 2 0 0 1 1.263-3.8c24.532 8.159 58.611 3.825 82.878-1.248a2 2 0 0 1 .819 3.915c-14.692 3.075-32.941 5.873-50.652 5.873z" fill="#e48860"/><path d="m478.472 346.172a2 2 0 0 1 -1.272-3.545c13.153-10.817 23.108-21.793 29.588-32.623a2 2 0 0 1 3.433 2.054c-6.717 11.225-16.972 22.549-30.48 33.659a1.991 1.991 0 0 1 -1.269.455z" fill="#ffae5d"/><path d="m200.819 287.614c-15.673 0-30.5-1.531-43.451-4.989a2 2 0 1 1 1.031-3.864c46.205 12.332 119.57-1.146 165.143-20.089a2 2 0 1 1 1.535 3.693c-34.447 14.319-82.377 25.249-124.258 25.249z" fill="#e48860"/><path d="m274.279 278.345a2 2 0 0 1 -.456-3.948 326.714 326.714 0 0 0 49.719-15.725 2 2 0 1 1 1.535 3.693 330.693 330.693 0 0 1 -50.339 15.927 2.016 2.016 0 0 1 -.459.053z" fill="#ffae5d"/><path d="m232.767 385.968c-10.592-2.687-22.488-3.58-31.531-3.826-4.276-7.237-8.689-14.868-13.161-22.734 13.7 9.22 34.012 20.127 44.692 26.56z" fill="#670a39"/><path d="m232.767 386.969a.993.993 0 0 1 -.246-.031c-8.508-2.159-19.336-3.471-31.312-3.8a1 1 0 0 1 -.834-.491c-4.161-7.043-8.592-14.7-13.17-22.748a1 1 0 0 1 1.428-1.324c9.158 6.162 21.558 13.24 31.522 18.928 4.937 2.818 9.6 5.48 13.128 7.605a1 1 0 0 1 -.516 1.857zm-30.95-5.811a162.691 162.691 0 0 1 25.027 2.488c-2.384-1.379-4.992-2.867-7.68-4.4-8.779-5.011-19.444-11.1-28.157-16.71 3.74 6.54 7.366 12.788 10.81 18.622z" fill="#670a39"/><path d="m377.913 409.542a87.873 87.873 0 0 0 10.6 1.6c28.122 2.519 61.869-8.364 74.335-37.572z" fill="#fff8ed"/><path d="m396.467 412.491q-4.077 0-8.039-.356a89.074 89.074 0 0 1 -10.725-1.616 1 1 0 0 1 .421-1.955 87.067 87.067 0 0 0 10.482 1.579c27.589 2.47 60.963-8 73.326-36.969a1 1 0 0 1 1.839.785c-11.571 27.107-40.839 38.532-67.304 38.532z" fill="#670a39"/><path d="m455.844 361.4c-10.852 46.96-85.59 49.037-108.128 19.244-5.553-7.313-8.55-25.824-3.017-33.5 15.709-21.785 37.351-7.135 55.55-8.069 19.17-.984 31.147-12.84 44.865-6.587 13.31 6.066 13.086 18.739 10.73 28.912z" fill="#670a39"/><path d="m396.258 401.408c-20.535 0-39.747-7.477-49.34-20.158-6.013-7.92-8.661-26.877-3.03-34.69 11.414-15.83 25.773-13.068 39.66-10.4 5.843 1.124 11.364 2.185 16.65 1.914 7.835-.4 14.6-2.7 20.56-4.733 8.8-3 16.4-5.582 24.771-1.765 10.946 4.989 14.744 15.1 11.289 30.05-4.442 19.223-20.133 33.053-43.051 37.944a84.1 84.1 0 0 1 -17.509 1.838zm-28.714-65.319c-8.008 0-15.482 2.554-22.033 11.64-5.063 7.025-2.57 24.976 3 32.313 11.855 15.672 39.124 23.062 64.838 17.574 22.126-4.723 37.26-18 41.52-36.438l.974.225-.974-.225c3.256-14.09-.071-23.177-10.171-27.78-7.651-3.487-14.9-1.02-23.3 1.838-6.089 2.072-12.989 4.421-21.1 4.837-5.53.285-11.427-.85-17.131-1.947-5.353-1.026-10.593-2.037-15.623-2.037z" fill="#670a39"/><path d="m422.611 395.605c-.029.017-.047.025-.076.04-23.331 8.294-59.128 5.745-74.819-15 3.2-5.4 11.19-15.206 23.747-7.238 5.964-9.251 34.137-5.583 51.148 22.198z" fill="#ec4949"/><path d="m395.639 401.044c-18.988 0-38.357-6.093-48.721-19.794a1 1 0 0 1 -.063-1.113c1.916-3.23 6.057-8.869 12.27-10.357 3.844-.92 7.9-.147 12.076 2.3 2.281-2.751 6.5-4.278 11.775-4.215 11.066.128 28.31 7.333 40.488 27.22a1 1 0 0 1 -.356 1.39c-.015.009-.073.039-.089.047-.037.019-.11.054-.149.068a82.56 82.56 0 0 1 -27.231 4.454zm-46.712-20.464c15.026 19.11 48.7 22.382 72.178 14.5-11.7-18.4-27.789-25.1-38.152-25.218-5.052-.056-8.938 1.431-10.65 4.088a1 1 0 0 1 -1.376.3c-3.98-2.525-7.8-3.376-11.336-2.528-5.155 1.237-8.785 5.85-10.664 8.858z" fill="#670a39"/><path d="m381.717 384.041a1 1 0 0 1 -.776-.369c-6.967-8.56-13.527-12.68-19.5-12.235-6.462.478-10.835 6.3-12.866 9.72a1 1 0 0 1 -1.721-1.02c2.231-3.76 7.072-10.15 14.44-10.695 6.655-.494 13.794 3.87 21.2 12.968a1 1 0 0 1 -.775 1.631z" fill="#670a39"/><path d="m362.892 339.513c9.955 23.726.922 50.136-20.184 58.992-3.727-29.644-13.043-87.894-13.043-87.894 13.959 3.068 26.783 13.544 33.227 28.902z" fill="#fff8ed"/><path d="m349.293 395.932a1 1 0 0 1 -.564-1.826c16.211-11.06 21.779-33.858 13.24-54.209a51.582 51.582 0 0 0 -4.325-8.175 1 1 0 1 1 1.676-1.091 53.541 53.541 0 0 1 4.493 8.492c8.906 21.223 3.036 45.042-13.957 56.635a1 1 0 0 1 -.563.174z" fill="#670a39"/><path d="m396.826 375.907c8.668 2.96 12.528 9.21 12.071 12.515s-9.281 5.322-18.22-2.214-4.067-13.79 6.149-10.301z" fill="#ff6d6d"/><ellipse cx="387.948" cy="274.688" fill="#f6e4d5" rx="41.295" ry="55.338" transform="matrix(.89746632 -.44108298 .44108298 .89746632 -81.383 199.285)"/><path d="m418.913 319.569c-.567.336-1.153.653-1.749.941-20.472 10.053-47.988-4.026-61.472-31.456s-7.814-57.81 12.648-67.873a31.712 31.712 0 0 1 4.94-1.932c19.76-5.843 44.114 8.1 56.532 33.379 13.088 26.632 8.14 56.051-10.899 66.941z" fill="#fff8ea"/><path d="m418.913 319.569c-.567.336-1.153.653-1.749.941-20.472 10.053-47.988-4.026-61.472-31.456s-7.814-57.81 12.648-67.873a31.712 31.712 0 0 1 4.94-1.932c-18.991 10.919-23.941 40.309-10.86 66.922 12.417 25.257 36.733 39.193 56.493 33.398z" fill="#e7dcdc"/><ellipse cx="406.401" cy="265.549" fill="#670a39" rx="26.725" ry="41.148" transform="matrix(.93228593 -.3617222 .3617222 .93228593 -68.536 164.985)"/><path d="m414.7 306.128c-5.165 0-10.648-1.967-15.974-5.807-7.672-5.531-14.125-14.319-18.17-24.744s-5.207-21.265-3.273-30.524c1.966-9.414 6.893-16.09 13.875-18.8 14.252-5.529 32.686 7.6 41.093 29.266 4.045 10.425 5.208 21.265 3.274 30.524-1.966 9.414-6.894 16.09-13.875 18.8a19.1 19.1 0 0 1 -6.95 1.285zm-16.61-79.153a17.067 17.067 0 0 0 -6.212 1.144c-6.328 2.455-10.818 8.615-12.641 17.343-1.855 8.885-.726 19.323 3.181 29.392s10.113 18.537 17.475 23.845c7.233 5.215 14.7 6.735 21.03 4.279s10.818-8.615 12.641-17.343c1.856-8.885.726-19.323-3.181-29.392-6.8-17.526-20.283-29.268-32.293-29.268z" fill="#670a39"/><ellipse cx="414.078" cy="246.282" fill="#fff8ea" rx="7.44" ry="9.915" transform="matrix(.80234895 -.59685522 .59685522 .80234895 -65.151 295.826)"/><path d="m402.889 324.773a43.018 43.018 0 0 1 -19.537-5.041c-11.8-6.038-21.943-16.775-28.557-30.232s-8.92-28.046-6.491-41.078c2.449-13.138 9.41-23.132 19.6-28.14 20.931-10.287 49.106 4.026 62.809 31.906s7.822 58.93-13.108 69.217a33.125 33.125 0 0 1 -14.716 3.368zm-20.314-105.837a31.023 31.023 0 0 0 -13.79 3.141c-9.609 4.723-16.184 14.209-18.514 26.712-2.351 12.61-.107 26.755 6.319 39.828s16.253 23.492 27.673 29.334c11.322 5.793 22.849 6.382 32.458 1.659 19.941-9.8 25.412-39.65 12.2-66.54-10.346-21.042-29.121-34.134-46.346-34.134z" fill="#670a39"/><path d="m14.228 43.83c-15.035 3.298-16.369 21.037 1.923 27.67 11.34 4.11 22.239-.356 23.568-9.529 1.349-9.327-9.182-21.718-25.491-18.141z" fill="#af4357"/><path d="m21.738 46.864c-10.929 2.4-11.9 15.291 1.4 20.11 8.243 2.987 16.166-.259 17.131-6.927.979-6.776-6.676-15.784-18.531-13.183z" fill="#e48860"/><path d="m24.567 74.022a25.817 25.817 0 0 1 -8.757-1.586c-10.955-3.97-14.463-11.383-14.092-17 .408-6.189 5.12-11.012 12.3-12.586 7.962-1.746 15.6.1 20.94 5.078 4.242 3.951 6.442 9.384 5.75 14.182a13.047 13.047 0 0 1 -6.408 9.418 18.925 18.925 0 0 1 -9.733 2.494zm-4.756-29.81a25.073 25.073 0 0 0 -5.369.595c-6.27 1.375-10.381 5.5-10.729 10.764-.322 4.888 2.865 11.392 12.778 14.985 6.063 2.2 12.337 1.919 16.782-.744a10.939 10.939 0 0 0 5.456-7.989c.6-4.158-1.366-8.92-5.137-12.428a19.949 19.949 0 0 0 -13.781-5.183z" fill="#670a39"/><path d="m5.928 19.692c-7.085 1.522-6.591 9.888 1.872 13.568 5.428 2.36 10.146.2 10.971-3.773 1.029-4.917-5.329-11.41-12.843-9.795z" fill="#e48860"/><path d="m12.211 35.234a12.129 12.129 0 0 1 -4.805-1.057c-4.86-2.112-7.755-5.948-7.374-9.772.284-2.859 2.41-4.987 5.686-5.691a12.193 12.193 0 0 1 11.182 3.31c2.306 2.291 3.372 5.157 2.85 7.666a6.682 6.682 0 0 1 -3.562 4.625 8.619 8.619 0 0 1 -3.977.919zm-3.937-14.792a10.211 10.211 0 0 0 -2.136.227c-2.419.52-3.919 1.954-4.116 3.934-.24 2.411 1.578 5.739 6.181 7.74a8.312 8.312 0 0 0 7.069.2 4.714 4.714 0 0 0 2.528-3.26c.378-1.817-.5-4.055-2.3-5.84a10.241 10.241 0 0 0 -7.226-3.001z" fill="#670a39"/><path d="m297.316 720.507c-32.178.637-88.748 1.8-87.581-57.03.579-29.021 7.081-49.665 16.339-63.523 8.9-13.338 22.5-22.94 38.367-23.136 12.672-.167 22.861 3.462 29.5 13.093a41.908 41.908 0 0 1 5.571 12.249 76.68 76.68 0 0 1 2.5 13.78c.215 2.275.363 4.658.451 7.169.068 3.8.049 7.228-.01 10.337-.343 22.244-2.207 28.452 14.407 38.593a32.31 32.31 0 0 1 12.671 13.406c7.387 15.3-2.754 34.483-32.215 35.062z" fill="#b9acc0"/><path d="m329.537 685.448c-.265 5.3-3.923 10.651-12.387 14.152-8.336 3.452-22.2 5.865-35.247 3.54-39.9-7.11-39.544-57.422-12.309-79.558a17.246 17.246 0 0 1 5.267-3.04c4.442.784 17.908 1.883 27.608 2.57.01.578.029 1.147.039 1.736.579 28.99-4.649 35.591 14.358 47.193a32.312 32.312 0 0 1 12.671 13.407z" fill="#d5d6e4"/><path d="m302.465 623.109c.068 3.8.049 7.228-.01 10.337a230.966 230.966 0 0 0 -32.875-15.346c14.182-.854 24.676-1.57 32.434-2.158.215 2.273.363 4.658.451 7.167z" fill="#670a39"/><path d="m302.455 634.446a1 1 0 0 1 -.493-.13 229.053 229.053 0 0 0 -32.734-15.282 1 1 0 0 1 .292-1.935c12.8-.77 23.705-1.5 32.418-2.156a1 1 0 0 1 1.071.9c.215 2.268.364 4.633.455 7.229v.017c.062 3.39.059 6.783-.009 10.374a1 1 0 0 1 -1 .981zm-28.238-15.629a229.788 229.788 0 0 1 27.265 12.935c.04-2.951.034-5.786-.017-8.616-.077-2.182-.195-4.2-.359-6.125-7.478.561-16.501 1.167-26.889 1.806z" fill="#670a39"/><path d="m331.852 695.736c-.226 12.631-11.749 24.322-34.532 24.773-32.178.638-88.748 1.795-87.581-57.03.579-29.02 7.081-49.665 16.34-63.523l2.049-2.9c10.859-14.581 24.732-17.767 30.668-9.2 9.288 13.387-6.728 29.746-16.035 57.354-6.208 18.437-6.7 32.06 3.531 47.34 9.14 13.643 25.43 19.889 44.143 19.889 25.127-.002 39.093-5.533 41.417-16.703z" fill="#9c819c"/><path d="m285.711 721.659c-21.184 0-47.393-2.079-63.173-17.858-9.5-9.5-14.141-23.072-13.8-40.342.536-26.914 6.09-48.466 16.507-64.059 9.865-14.8 24.148-23.394 39.186-23.58 25.568-.346 37.963 14.68 39.035 47.259.108 6.339-.016 11.559-.126 16.165-.42 17.695-.547 23.036 14.045 31.943a33.445 33.445 0 0 1 13.054 13.832 22.483 22.483 0 0 1 -.889 21.908c-5.59 9.1-17.03 14.281-32.212 14.582l-.04-2c14.478-.287 25.327-5.128 30.548-13.629a20.522 20.522 0 0 0 .789-20 31.464 31.464 0 0 0 -12.293-12.989c-15.576-9.507-15.42-16.094-15-33.7.109-4.586.233-9.785.126-16.067-1.028-31.227-12.792-45.622-37.011-45.309-14.368.177-28.053 8.448-37.547 22.691-10.2 15.27-15.643 36.462-16.172 62.988-.331 16.7 4.114 29.788 13.214 38.888 18.214 18.215 51.356 17.558 73.287 17.124l.08 1-.04 1c-3.595.076-7.489.153-11.568.153z" fill="#670a39"/><path d="m205.875 614.464a1.017 1.017 0 0 1 -.292-.043 1 1 0 0 1 -.664-1.249c7.725-25.278 27.849-44.344 50.078-47.443a1 1 0 0 1 .276 1.981c-21.473 2.993-40.94 21.5-48.442 46.046a1 1 0 0 1 -.956.708z" fill="#670a39"/><path d="m394.806 610.882c-15.967 12.592-37.975 20.036-63.876 20.036-22.008 0-45.487-5.453-68.9-16.055-2.776-3.069 1.412-22.047 7.846-28.824 92.248 44.7 165.893-14.083 95.4-92.052a14.714 14.714 0 0 1 21.831-19.733 164.82 164.82 0 0 1 20.478 27.677c25.754 44.29 16.928 85.53-12.779 108.951z" fill="#b9acc0"/><path d="m396.481 609.524c-.768.64-1.561 1.252-2.384 1.82-.233.16-.463.327-.694.5-22.007 16.633-33.276 1.667-12.612-15.251 31.129-25.48 29.54-50.077 4.913-89.444-12.288-19.664 5.238-33.62 19.076-9.6l2.805 4.384c25.264 43.444 17.251 83.956-11.104 107.591z" fill="#d5d6e4"/><path d="m330.992 602.667c-15.091 0-32.434-3.331-51.486-11.205a1 1 0 1 1 .764-1.848c50.376 20.819 88.424 9.474 103.783-11.006 16.008-21.345 8.712-52.729-19.517-83.952a1 1 0 1 1 1.484-1.342c28.92 31.989 36.26 64.324 19.634 86.494-9.954 13.272-29.067 22.859-54.662 22.859z" fill="#670a39"/><path d="m330.928 631.921c-19.865 0-40.631-4.339-61.723-12.9a1 1 0 0 1 .752-1.854c20.852 8.46 41.365 12.749 60.971 12.749a126.156 126.156 0 0 0 14.489-.824c26.522-3.077 48.6-14.738 62.174-32.836 11.934-15.914 16.468-35.427 13.109-56.429-3.07-19.2-12.5-38.575-28.034-57.581a1 1 0 0 1 1.549-1.266c15.758 19.284 25.334 38.977 28.461 58.531 3.445 21.55-1.218 41.587-13.485 57.945-13.9 18.541-36.471 30.482-63.543 33.623a128.382 128.382 0 0 1 -14.72.842z" fill="#670a39"/><path d="m451.081 158.247c-22.462 23.034-49.372 41.278-77.974 55.818-19.762 10.046-76.879 35.546-98.992 32.343-16.456-2.384-19.892-20 9.725-30.434q7.194-2.389 14.436-5.018c32.56-10 125.725-49.449 151.81-88.667 6.436-5.848 14.5-9.593 16.984 1.071 1.612 6.967-1.57 20.103-15.989 34.887z" fill="#d5d6e4"/><path d="m298.277 210.959c-45.163 16.384-89.51 26.138-126.051 27.632-37.847 1.549-58.914-5.894-70.516-15.614 12.23 8.219 32.669 14.064 66.593 12.671 39.818-1.627 88.9-13.063 138.216-32.2s93.259-43.788 123.761-69.448c43.437-36.543 45.427-62.581 39.445-78a37.715 37.715 0 0 0 -11.181-15.348 38.823 38.823 0 0 1 15.1 18.291c5.139 13.243 4.395 34.325-23.451 63.169-25.917 39.282-119.307 78.828-151.916 88.847z" fill="#9c819c"/><path d="m157.733 109.931a1 1 0 0 1 -.555-1.833c27.271-18.146 60.524-35.046 96.163-48.874 15.729-6.1 31.616-11.489 47.218-16.008a1 1 0 1 1 .556 1.921c-15.545 4.5-31.376 9.87-47.051 15.952-35.506 13.776-68.626 30.607-95.778 48.674a1 1 0 0 1 -.553.168z" fill="#670a39"/><path d="m162.523 239.794c-49.8 0-67.221-17.031-72.961-31.827a38.88 38.88 0 0 1 -2.057-20.058 1 1 0 0 1 1.978.3 36.917 36.917 0 0 0 1.943 19.04c5.864 15.113 24.634 32.646 80.757 30.347 36.161-1.482 80.821-11.274 125.753-27.572a1 1 0 0 1 .682 1.88c-45.12 16.367-89.993 26.2-126.353 27.69q-5.065.206-9.742.2z" fill="#670a39"/><path d="m257.479 27.392c-10.879 12.588-1.379 30.467 17.307 27.601 11.975-1.837 18.031-12.764 15.384-22.623-3.281-12.217-21.153-18.325-32.691-4.978z" fill="#af4357"/><path d="m290.759 36.184c-.079.3-.167.618-.265.932-4.688 14.76-21.214 16.006-28.094 7.284-5.541-7.032-4.433-17.938 4.59-23.567a.077.077 0 0 1 .039-.02c10.033-3.325 20.674 2.4 23.136 11.553a17.011 17.011 0 0 1 .594 3.818z" fill="#e48860"/><path d="m270.939 56.294c-7.441 0-13.748-3.34-16.986-9.2-3.567-6.454-2.5-14.253 2.773-20.352a22.439 22.439 0 0 1 10-6.876 19.78 19.78 0 0 1 15.541 1.349 17.831 17.831 0 0 1 8.874 10.894 18.128 18.128 0 0 1 .622 4.036c.4 8.5-5.246 18.055-16.823 19.838a26.412 26.412 0 0 1 -4.001.311zm1.978-35.424a17.68 17.68 0 0 0 -5.568.9 20.479 20.479 0 0 0 -9.11 6.284c-4.715 5.45-5.686 12.376-2.536 18.077 3.388 6.131 10.64 9.149 18.928 7.88 10.409-1.6 15.49-10.156 15.129-17.775a16.143 16.143 0 0 0 -.555-3.6 15.829 15.829 0 0 0 -7.892-9.654 17.724 17.724 0 0 0 -8.396-2.112z" fill="#670a39"/><path d="m490.466 265.113c-19.635 12.388-44.763-7.9-53.9-35.9-8.621-26.444-1.692-55.229 18.251-60.116 17.752-4.508 38.617 12.446 47.209 38.761 7.941 24.318 2.693 48.342-11.56 57.255z" fill="#f6e4d5"/><ellipse cx="472.182" cy="214.696" fill="#fff8ea" rx="34.425" ry="51.547" transform="matrix(.95066744 -.31021188 .31021188 .95066744 -43.307 157.068)"/><path d="m493.35 261.269a23.029 23.029 0 0 1 -5.181 2.431c-18.068 5.9-39.885-11.264-48.718-38.328s-1.335-53.783 16.743-59.684c.5-.164 1-.308 1.509-.433-14.225 8.929-19.443 32.947-11.524 57.233 8.583 26.296 29.421 43.25 47.171 38.781z" fill="#e7dcdc"/><path d="m480.763 265.87c-6.921 0-14.171-2.786-21.034-8.186-9.357-7.361-16.9-18.726-21.228-32-8.98-27.545-1.182-54.885 17.382-60.945.524-.171 1.048-.322 1.582-.453 18.391-4.67 39.654 12.645 48.4 39.422 8 24.5 2.961 49.07-11.982 58.411a24.06 24.06 0 0 1 -5.4 2.534 24.747 24.747 0 0 1 -7.72 1.217zm-17.119-100.351a23.046 23.046 0 0 0 -5.695.706c-.493.121-.969.258-1.445.413-17.516 5.718-24.74 31.927-16.1 58.424 4.211 12.9 11.514 23.931 20.563 31.05 8.932 7.027 18.483 9.384 26.894 6.637a22.056 22.056 0 0 0 4.957-2.326c14.174-8.861 18.86-32.452 11.141-56.094-7.509-23.005-24.412-38.81-40.315-38.81z" fill="#670a39"/><ellipse cx="484.408" cy="208.521" fill="#670a39" rx="20.519" ry="35.379" transform="matrix(.93228593 -.3617222 .3617222 .93228593 -42.625 189.34)"/><path d="m492.653 243.342c-4.244 0-8.838-1.859-13.348-5.47-6.166-4.936-11.478-12.6-14.959-21.567s-4.725-18.211-3.5-26.014c1.254-8 4.949-13.569 10.405-15.686 11.063-4.292 25.965 7.43 33.221 26.131 7.256 18.7 4.159 37.408-6.9 41.7a13.511 13.511 0 0 1 -4.919.906zm-16.472-67.642a11.569 11.569 0 0 0 -4.208.772c-4.764 1.849-8.014 6.867-9.153 14.132-1.169 7.46.035 16.332 3.39 24.98s8.45 16.011 14.345 20.73c5.74 4.6 11.526 6.108 16.289 4.261 10.034-3.894 12.619-21.439 5.762-39.112-5.938-15.307-17.04-25.763-26.425-25.763z" fill="#670a39"/><ellipse cx="489.693" cy="189.197" fill="#fff8ea" rx="5.009" ry="7.017" transform="matrix(.87097381 -.49132945 .49132945 .87097381 -29.774 265.016)"/><path d="m378.29 89.573c-28.056 4.618-48.437-3.533-44.884-36.393 2.233-20.661-10.17-22.872-16.891-18.32-4.571 3.1-9.378 10.247-9.57 20.115-.429 21.98 7.882 47.974-28.838 60.063-20.951 16.092 16.691 14.408 48.275 10.813a66.35 66.35 0 0 0 51.908-36.278z" fill="#c36b62"/><path d="m166.148 220.54c-16.025 0-29.637-1.992-40.121-6.025a.945.945 0 0 1 -.125-.058c-4.943-2.732-9.4-4.854-13.333-6.727-13.781-6.563-22.885-10.9-30.8-31.1a211.032 211.032 0 0 1 -6.861-21.107c-4.395-15.7-5.721-20.443-30.446-29.454-11.783-4.294-17.7-12.2-15.815-21.16 2.913-13.882 23.786-27.09 53.676-25.166 21.158 1.381 32.863 8.567 44.182 15.516 11.67 7.165 22.694 13.933 43.375 14.159 35.722.4 50.781 9.51 62.881 16.831 14.417 8.723 24.833 15.026 61.823 2.543a1 1 0 1 1 .639 1.9c-37.87 12.78-49.179 5.937-63.5-2.727-11.892-7.2-26.692-16.15-61.868-16.542-21.234-.232-32.486-7.14-44.4-14.454-11.105-6.828-22.595-13.882-43.255-15.231-28.806-1.857-48.851 10.533-51.59 23.581-1.681 8.011 3.619 14.889 14.543 18.87 25.689 9.362 27.2 14.763 31.687 30.794a210.456 210.456 0 0 0 6.769 20.861c7.652 19.522 16 23.5 29.823 30.08 3.942 1.878 8.408 4 13.38 6.749 26.608 10.2 73.848 7.033 129.627-8.694 56.414-15.893 113.422-42.642 152.5-71.554a1 1 0 0 1 1.19 1.608c-39.259 29.048-96.509 55.915-153.144 71.871-34.396 9.696-65.606 14.636-90.837 14.636z" fill="#670a39"/><path d="m396.47 66.641c7.7-1.364 8.8-10.649.672-15.108-5.213-2.858-10.561-.676-12.193 3.681-2.022 5.398 3.358 12.874 11.521 11.427z" fill="#c36b62"/><path d="m394.475 67.819a11.04 11.04 0 0 1 -8.584-3.952 9.213 9.213 0 0 1 -1.879-9 8.628 8.628 0 0 1 5.093-5.045 10.186 10.186 0 0 1 8.518.838c5.234 2.87 6.549 7.241 6.033 10.374-.559 3.4-3.246 5.929-7.011 6.6a12.472 12.472 0 0 1 -2.17.185zm-2.122-16.578a7.309 7.309 0 0 0 -2.551.452 6.622 6.622 0 0 0 -3.916 3.871 7.215 7.215 0 0 0 1.543 7.024 9.132 9.132 0 0 0 8.867 3.069c2.949-.523 4.963-2.374 5.387-4.952.4-2.457-.7-5.927-5.022-8.3a8.981 8.981 0 0 0 -4.308-1.164z" fill="#670a39"/><path d="m444.128 129.115a1 1 0 0 1 -.688-1.727c33.678-31.833 34.509-54.592 29.276-68.079a37.962 37.962 0 0 0 -14.729-17.822c-14.14-9.533-36.354-13.748-66.024-12.532a333.845 333.845 0 0 0 -49.914 6.2 1 1 0 0 1 -.383-1.963 335.857 335.857 0 0 1 50.215-6.236c30.105-1.235 52.723 3.095 67.223 12.871a39.915 39.915 0 0 1 15.476 18.759c5.455 14.059 4.72 37.659-29.766 70.255a1 1 0 0 1 -.686.274z" fill="#670a39"/><path d="m204.975 120.014c-20.992-9.825-48 .44-64.906-9.9-17.927-10.971-29.4-23.1-50.544-23.1-16.19 0-16.773 8.241-6.89 11.355 13.179 4.152 28.7-4.934 47.03 13.843 12.271 12.57 32.038 31.44 50.12 34.359 30.567 4.929 44.168-17.671 25.19-26.557z" fill="#e48860"/><path d="m404.265 95.627c-5.058-2.548-16.768 5.246-13.273 9.094 3.72 4.096 18.832-6.294 13.273-9.094z" fill="#af4357"/><path d="m219.416 135.328c-7.4 4.125-3.12 15.034-17.709 15.708-19.278.89-28.793 12.325 5.726 17.013s54.767-13.585 38.867-25.972c-12.324-9.602-19.456-10.889-26.884-6.749z" fill="#e48860"/><path d="m313.979 76.3c1.87-5.83.948-11.506-1.791-17.272-4.117-8.669.017-22.887 10.419-22.147 6.9.49 10.555 10.365 3.462 18.633-4.917 6.541-7.569 10.937-6.03 19.588 1.309 7.352-8.875 9.972-6.06 1.198z" fill="#e48860"/><path d="m414.717 107.6a9.983 9.983 0 0 0 4.252-12.609c-1.836-4.392-6.663-5.681-8.647-2.491-1.678 2.7 1.472 6.716-3.351 10.394-4.008 3.054-.588 9.495 7.746 4.706z" fill="#af4357"/><path d="m407.042 112.266c-3.124-3.828-13.367-3.029-18.909.206-6.949 4.056-3.686 11.815 6.98 10.8 9.123-.872 15.543-6.578 11.929-11.006z" fill="#af4357"/><path d="m252.663 381.348a14.447 14.447 0 0 1 -19.9 4.62c-21.845-13.6-42.917-19.947-61.906-20.989-1.506-.082-3-.134-4.486-.144h-.021c-25.93-.289-47.621 9.365-61.6 23.712-14.286 14.656-19.587 32.779-15.719 51.3.051.258.113.516.165.774a71.524 71.524 0 0 0 10.415 23.839 14.439 14.439 0 1 1 -24.105 15.9c-12.614-19.122-18.173-40.009-16.09-60.389 1.96-19.206 10.49-37.039 24.651-51.582 17.937-18.4 43.258-29.736 71.3-31.891 30.613-2.342 62.659 6.281 92.663 24.95a14.457 14.457 0 0 1 4.633 19.9z" fill="#d3b6b8"/><path d="m166.375 364.835c-54.523 0-84.84 39.077-77.336 75.015 2.989 14.969-6.115 22.736-12.656 7.5-6.89-16.05-11.562-47.787 14.987-73.16 21.082-20.144 51.643-26.714 72.529-22.97 17.548 3.142 16.875 15.634 2.476 13.615z" fill="#fff8ed"/><path d="m87.572 487.853a15.413 15.413 0 0 1 -12.9-6.942c-12.738-19.318-18.357-40.426-16.25-61.04 1.988-19.426 10.61-37.467 24.935-52.171 18.1-18.583 43.654-30.016 71.944-32.193 27.834-2.135 57.162 4.827 84.812 20.133a1 1 0 1 1 -.969 1.75c-27.307-15.117-56.247-21.994-83.69-19.888-27.8 2.139-52.9 13.359-70.664 31.594-14.01 14.378-22.44 32.004-24.381 50.979-2.06 20.15 3.448 40.806 15.93 59.735a13.439 13.439 0 1 0 22.439-14.8c-17.668-26.8-15.7-55.642 5.262-77.161 25.113-25.776 74.82-36.615 129.257-2.727a1 1 0 0 1 -1.057 1.7c-53.494-33.3-102.214-22.777-126.767 2.425-20.261 20.8-22.139 48.708-5.025 74.664a15.442 15.442 0 0 1 -12.876 23.941z" fill="#670a39"/><path d="m67.708 522.46a37.669 37.669 0 0 0 4.823 13.089 40.726 40.726 0 0 0 6.863 8.451c14.452 16 39.161 27.019 57.236 15.376 8.17-1 15.783-4.041 21.613-9.557a31.614 31.614 0 0 0 2.625-2.789c15.644-5.7 20.941-28.988 19.445-45.407v-.009c3.475-9.63 3.024-19.721-5.056-29.658-19.506-24.023-52.883-16.4-82.482-8.784-21.387 14.421-28.954 37.328-25.067 59.288z" fill="#d3b6b8"/><path d="m135.429 549.029c38.285 5.555 61.747-24.188 37.433-62.4-11.379-17.869-31.126-11.9-33.764 1.235a17.955 17.955 0 0 0 3.909 14.643c.516-3.164-7.56 46.41-7.578 46.522z" fill="#d3b6b8"/><path d="m136.628 559.377c8.17-1 18.477-5.423 23.575-12.141-14.564 5.338-32-8.042-40.767-13.157-9.066-5.289-17.038-6.761-30.027-1.632-5.46 2.156-14.336 7.415-10.1 11.479l.084.08c14.45 15.994 39.163 27.011 57.235 15.371z" fill="#d3b6b8"/><path d="m129.865 560.76a65.259 65.259 0 0 1 -10.131-.818 1 1 0 0 1 .311-1.976c17.348 2.731 31.577-1.382 40.064-11.579a1 1 0 1 1 1.537 1.28c-7.099 8.533-18.373 13.093-31.781 13.093z" fill="#670a39"/><path d="m182.95 515.51a44.288 44.288 0 0 0 -2.633-13.9c3.474-9.624 3.024-19.715-5.062-29.656a41.293 41.293 0 0 0 -13.46-10.986c-10.031-5.328-21.976-5.019-26.718-5.168l-.006.008c-16.57 4.188-28.3 21.059-21.767 41.464 6.753 21.107 26.956 38.737 46.075 40.343a21.754 21.754 0 0 0 23.571-22.105z" fill="#fff8ed"/><path d="m180.311 502.613a1 1 0 0 1 -.911-1.406c3.782-10.537 2.173-19.9-4.921-28.621a40.382 40.382 0 0 0 -13.13-10.722c-8.914-4.729-19.255-4.925-24.811-5.03-.5-.01-.956-.018-1.368-.03-.024 0-.049 0-.073.005-12.586.322-25.243 3.106-35.965 5.787a1 1 0 1 1 -.485-1.94c10.795-2.7 23.543-5.5 36.285-5.843a1 1 0 0 1 .174-.011c.438.012.93.022 1.47.032 5.723.109 16.375.311 25.687 5.252a42.359 42.359 0 0 1 13.769 11.239c7.482 9.2 9.24 19.5 5.226 30.625a.992.992 0 0 1 -.147.269 1 1 0 0 1 -.8.394z" fill="#670a39"/><path d="m120.212 565.06c-14.81 0-30.6-9.113-41.536-20.356-6.7-6.888-10.5-13.9-11.953-22.073-3.15-17.852 1.391-35.539 12.459-48.527a1 1 0 0 1 1.523 1.3c-10.68 12.532-15.059 29.619-12.013 46.88 1.38 7.758 5.008 14.44 11.417 21.027 14.773 15.183 38.592 26.425 55.978 15.227a1.013 1.013 0 0 1 .42-.152c11.819-1.444 19.945-7.153 23.608-12.013a1 1 0 0 1 1.6 1.2c-3.886 5.157-12.417 11.2-24.736 12.767a30.839 30.839 0 0 1 -16.767 4.72z" fill="#670a39"/><path d="m144.469 550.7a64.11 64.11 0 0 1 -9.184-.68 1 1 0 0 1 .287-1.98c18.287 2.653 33.748-2.789 41.36-14.559 7.866-12.163 6.076-29.044-4.914-46.316-5.045-7.923-12.518-11.821-19.989-10.427a14.651 14.651 0 0 0 -11.951 11.322 17.068 17.068 0 0 0 3.708 13.819 1 1 0 1 1 -1.559 1.253 18.829 18.829 0 0 1 -4.11-15.467 16.642 16.642 0 0 1 13.545-12.893c8.3-1.548 16.544 2.682 22.044 11.319 11.427 17.96 13.215 35.629 4.905 48.477-6.721 10.389-19.123 16.132-34.142 16.132z" fill="#670a39"/><path d="m134.152 474.814a47.545 47.545 0 0 0 15 25.514c-2.955 10.354-20.339 10.431-27.47-3.168-7.782-14.832 7.024-26.51 12.47-22.346z" fill="#fff8ed"/><path d="m149.15 501.328a1 1 0 0 1 -.66-.249 48.6 48.6 0 0 1 -15.312-26.038 1 1 0 0 1 1.948-.455 46.641 46.641 0 0 0 14.685 24.992 1 1 0 0 1 -.661 1.75z" fill="#670a39"/><path d="m116.146 576.492c-17.678 0-33.932-7.574-42.831-20.4a1 1 0 1 1 1.644-1.14c9.816 14.148 29.041 21.623 48.988 19.034a1 1 0 0 1 .257 1.983 62.613 62.613 0 0 1 -8.058.523z" fill="#670a39"/><path d="m34.625 130.638a1 1 0 0 1 -.364-.069c-10.375-4.058-16.709-10.718-17.835-18.753-1.181-8.429 3.584-17.63 12.746-24.614a1 1 0 0 1 1.212 1.591c-8.579 6.539-13.056 15.042-11.977 22.745 1.021 7.288 6.911 13.386 16.583 17.169a1 1 0 0 1 -.365 1.931z" fill="#670a39"/></svg>