<svg width="64" height="70" viewBox="0 0 64 70" fill="none" xmlns="http://www.w3.org/2000/svg">
<path d="M5.8 70V31.1H0V20.4H5.8V16.6C5.8 10.6 7.3 6.33333 10.3 3.79999C13.3667 1.26666 17.5 -4.76837e-06 22.7 -4.76837e-06H26.9V10.9H24.7C22.5 10.9 20.9333 11.3333 20 12.2C19.0667 13.0667 18.6 14.5333 18.6 16.6V20.4H27.5V31.1H18.6V70H5.8ZM35.3594 70V20.4H48.0594V27.8C49.7927 25 51.9927 22.8667 54.6594 21.4C57.326 19.9333 60.2927 19.2 63.5594 19.2V32.6H60.1594C56.0927 32.6 53.0594 33.5667 51.0594 35.5C49.0594 37.4333 48.0594 40.6667 48.0594 45.2V70H35.3594Z" fill="#EFE9D5"/>
</svg>
