<svg width="800" height="800" viewBox="0 0 800 800" fill="none" xmlns="http://www.w3.org/2000/svg">
<path d="M165.961 322.836C99.7647 296.358 66.6667 283.118 66.6667 266.667C66.6667 250.215 99.7647 236.976 165.961 210.497L259.577 173.051C325.773 146.573 358.87 133.333 400 133.333C441.13 133.333 474.227 146.573 540.423 173.051L634.04 210.497C700.237 236.976 733.333 250.215 733.333 266.667C733.333 283.118 700.237 296.358 634.04 322.836L540.423 360.283C474.227 386.76 441.13 400 400 400C358.87 400 325.773 386.76 259.577 360.283L165.961 322.836Z" fill="#EFE9D5"/>
<path fill-rule="evenodd" clip-rule="evenodd" d="M66.6667 266.667C66.6667 283.118 99.7647 296.358 165.961 322.836L259.577 360.283C325.773 386.76 358.87 400 400 400C441.13 400 474.227 386.76 540.423 360.283L634.04 322.836C700.237 296.358 733.333 283.118 733.333 266.667C733.333 250.215 700.237 236.976 634.04 210.497L540.423 173.051C474.227 146.573 441.13 133.333 400 133.333C358.87 133.333 325.773 146.573 259.577 173.051L165.961 210.497C99.7647 236.976 66.6667 250.215 66.6667 266.667Z" fill="#EFE9D5"/>
<path d="M634.04 456.17L540.423 493.617C474.227 520.093 441.13 533.333 400 533.333C358.87 533.333 325.773 520.093 259.577 493.617L165.961 456.17C99.7647 429.69 66.6667 416.45 66.6667 400C66.6667 385.17 93.5604 372.95 147.348 351.293L252.048 393.173C313.669 417.833 352.4 433.333 400 433.333C447.6 433.333 486.33 417.833 547.953 393.173L652.653 351.293C706.44 372.95 733.333 385.17 733.333 400C733.333 416.45 700.237 429.69 634.04 456.17Z" fill="#EFE9D5"/>
<path d="M634.04 589.497L540.423 626.943C474.227 653.42 441.13 666.66 400 666.66C358.87 666.66 325.773 653.42 259.577 626.943L165.961 589.497C99.7647 563.017 66.6667 549.78 66.6667 533.327C66.6667 518.497 93.5604 506.277 147.348 484.62L252.048 526.5C313.669 551.16 352.4 566.66 400 566.66C447.6 566.66 486.33 551.16 547.953 526.5L652.653 484.62C706.44 506.277 733.333 518.497 733.333 533.327C733.333 549.78 700.237 563.017 634.04 589.497Z" fill="#EFE9D5"/>
</svg>
